<?xml version="1.0" encoding="UTF-8"?>
<svg id="Camada_1" xmlns="http://www.w3.org/2000/svg" version="1.1" viewBox="0 0 1000 500">
  <!-- Generator: Adobe Illustrator 29.3.1, SVG Export Plug-In . SVG Version: 2.1.0 Build 151)  -->
  <defs>
    <style>
      .st0 {
        fill: #f2f2f2;
      }

      .st1 {
        fill: #a9a9aa;
      }

      .st2 {
        fill: #fff;
      }

      .st3 {
        fill: #888989;
      }

      .st4 {
        fill: #bababa;
      }

      .st5 {
        fill: #047ebd;
      }

      .st6 {
        fill: #c9161a;
      }

      .st7 {
        fill: #3b3a3a;
      }

      .st8 {
        fill: #010101;
      }

      .st9 {
        fill: #203a66;
      }

      .st10 {
        fill: #ee741c;
      }
    </style>
  </defs>
  <g>
    <path class="st5" d="M1543.74,148.19c3.7,9.56-1.81,18.78-8.78,22.86-.16.09-.31.22-.45.38-1.09,1.21-.75,3.1.59,4.03h0c2.02,1.39,4.67,1.63,6.88.56,7.63-3.69,21.09-19.86,11.48-36.43-9.03-15.57-20.53-19.43-34.45-18.9-1.11.04-2.03.09-2.03.09,0,0-11.41-11.72-28.79-3.71-15.79,7.28-16.93,22.57-16.93,22.57,0,0-1.77,1.75-2.6,2.66-3.82,4.18-6.8,8.78-8.7,13.62-4.86,12.37-1.09,26.29,12.15,38.83,1.83,1.73,4.88,1.16,5.96-1.09l3.33-6.93c.65-1.36.37-2.96-.68-4.06-11.07-11.71-10.02-23.95-1.25-33.4.34-.37,1.05-1.09,1.05-1.09,0,0,.19-13.86,14.02-19.6s22,4.13,22,4.13c0,0,1.72-.04,2.57-.02,10.89.25,20.5,4.8,24.63,15.51Z"/>
    <path class="st10" d="M1564.02,150.67c-1.85-1.35-4.44,0-4.33,2.28l.27,5.95c.02.55.23,1.07.55,1.51,7.23,9.78,3.29,21.74-7.6,28.58-9.62,6.05-28.89,9.72-39.56,5.78-7.93-2.93-6.54-7.1-4.03-14.54,1.72-5.08,9.18-28.01,28.16-29.43,2.84-.21,3.44-4.33.73-5.21-.15-.05-.31-.09-.47-.12-1.21-.22-.94-.36-3.4-.44s-4.75.03-6.82,1.28l-28.34,18.44c-1.84,1.12-4.9,6.44-5.82,8.39-3.9,8.24-11.84,24.14-11.84,24.14-.68,1.43,0,3.16,1.49,3.7,5.74,2.06,12.7,3.4,21.03,3.82,14.14.7,37.77-.82,50.95-5.8,21.84-8.26,26.07-35.85,9.01-48.33Z"/>
    <path class="st6" d="M1502.92,154.85c-.46.99.63,1.98,1.56,1.42l15.68-9.49c.96-.58.54-2.06-.58-2.05-1.21.01-6.97-.48-9.88-.74-1.03-.09-1.99.47-2.42,1.41-1.27,2.76-3.83,8.33-4.36,9.45Z"/>
  </g>
  <rect class="st9" x="1015.73" y="307.3" width="250.25" height="194.06"/>
  <rect class="st5" x="1265.98" y="307.3" width="250.25" height="194.06"/>
  <rect class="st0" x="1516.22" y="307.3" width="250.25" height="194.06"/>
  <rect class="st8" x="1766.47" y="307.3" width="250.25" height="194.06"/>
  <g>
    <g>
      <g>
        <g>
          <path class="st5" d="M407.74-402.33c5.9,0,10.6,1.63,14.11,4.9,3.51,3.26,5.26,7.48,5.26,12.65s-1.75,9.38-5.26,12.65c-3.51,3.26-8.21,4.9-14.11,4.9h-12.25v-35.09h12.25ZM407.74-372.32c4.19,0,7.52-1.15,10-3.46s3.72-5.31,3.72-9.01-1.24-6.7-3.72-9.01-5.81-3.46-10-3.46h-6.65v24.93h6.65Z"/>
          <path class="st5" d="M459.12-367.24h-5.45v-2.99c-2.37,2.48-5.52,3.72-9.43,3.72-3.53,0-6.55-1.28-9.09-3.85-2.53-2.57-3.8-5.86-3.8-9.87s1.27-7.26,3.82-9.85c2.55-2.58,5.57-3.88,9.06-3.88,3.91,0,7.05,1.24,9.43,3.72v-2.99h5.45v25.97ZM451.1-373.81c1.71-1.66,2.57-3.8,2.57-6.42s-.86-4.76-2.57-6.42c-1.71-1.66-3.7-2.49-5.97-2.49-2.44,0-4.47.81-6.08,2.44-1.61,1.62-2.41,3.78-2.41,6.47s.8,4.84,2.41,6.47c1.61,1.62,3.63,2.43,6.08,2.43,2.27,0,4.26-.83,5.97-2.49Z"/>
          <path class="st5" d="M474.64-352.26h-6.08l6.62-15.61-11.21-25.4h6.08l8.12,18.75,8.33-18.75h6.07l-17.94,41.01Z"/>
        </g>
        <g>
          <path class="st7" d="M399.46-359.15v6.85h-.41v-6.85h-2.87v-.35h6.16v.35h-2.88Z"/>
          <path class="st7" d="M408.91-352.29l-3.05-3.42h-1.73v3.42h-.39v-7.21h3.24c.66,0,1.19.17,1.59.52.4.34.6.8.6,1.38s-.2,1.03-.6,1.38c-.4.34-.93.52-1.59.52h-.62l3.09,3.42h-.53ZM406.97-356.07c.54,0,.98-.14,1.31-.43s.5-.65.5-1.11-.17-.83-.5-1.11-.77-.42-1.31-.42h-2.85v3.08h2.85Z"/>
          <path class="st7" d="M410.91-352.29v-7.21h.39v7.21h-.39Z"/>
          <path class="st7" d="M419.11-352.29l-.94-2.03h-4.26l-.94,2.03h-.41l3.3-7.21h.34l3.3,7.21h-.41ZM416.05-358.98l-1.97,4.3h3.95l-1.98-4.3ZM414.58-360.28l1.29-1.47h.36l1.28,1.47h-.41l-1.05-1.19-1.04,1.19h-.42Z"/>
          <path class="st7" d="M426.8-352.29h-.37l-5.25-6.55v6.55h-.39v-7.21h.35l5.25,6.55v-6.55h.4v7.21Z"/>
          <path class="st7" d="M435.87-355.9c0,1.05-.33,1.93-1,2.65-.67.72-1.53,1.08-2.58,1.08s-1.92-.36-2.63-1.08-1.07-1.6-1.07-2.64.36-1.92,1.07-2.64,1.59-1.08,2.63-1.08c.78,0,1.47.18,2.05.54.59.36,1.02.85,1.28,1.47l-.35.14c-.24-.54-.63-.98-1.15-1.3-.52-.32-1.13-.48-1.83-.48-.93,0-1.72.32-2.35.97-.63.65-.95,1.44-.95,2.38s.32,1.73.96,2.38c.64.65,1.42.97,2.36.97s1.66-.3,2.25-.91.9-1.36.95-2.26h-3.65v-.35h4.02v.17Z"/>
          <path class="st7" d="M443.43-355.38c0,.96-.27,1.74-.81,2.32s-1.25.88-2.13.88-1.59-.29-2.13-.88c-.54-.59-.81-1.36-.81-2.32v-4.12h.39v4.12c0,.85.23,1.53.7,2.05s1.08.78,1.85.78,1.37-.26,1.84-.78c.47-.52.7-1.2.7-2.05v-4.12h.4v4.12Z"/>
          <path class="st7" d="M450.32-352.29h-4.83v-7.21h.39v6.85h4.44v.36Z"/>
          <path class="st7" d="M457.34-358.54c.71.72,1.07,1.6,1.07,2.64s-.36,1.92-1.07,2.64-1.58,1.08-2.6,1.08-1.9-.36-2.61-1.08c-.71-.72-1.07-1.6-1.07-2.65s.36-1.92,1.07-2.64,1.58-1.08,2.61-1.08,1.89.36,2.6,1.08ZM457.07-353.51c.63-.65.95-1.44.95-2.38s-.32-1.73-.95-2.38c-.63-.65-1.41-.97-2.32-.97s-1.7.32-2.33.97c-.63.65-.95,1.44-.95,2.38s.32,1.73.95,2.38c.63.65,1.41.97,2.33.97s1.69-.32,2.32-.97Z"/>
        </g>
        <g>
          <path class="st9" d="M413.09-409.96c1.67-1.06,2.88-2.5,3.61-4.31l1.2.34c-.82,2.04-2.18,3.67-4.07,4.9-1.89,1.23-4.11,1.84-6.65,1.84-3.3,0-6.09-1.15-8.38-3.45-2.29-2.3-3.44-5.11-3.44-8.44s1.15-6.13,3.44-8.44c2.29-2.3,5.09-3.45,8.38-3.45,2.52,0,4.73.61,6.63,1.82,1.9,1.21,3.26,2.83,4.09,4.85l-1.17.41c-.73-1.81-1.94-3.25-3.62-4.31-1.68-1.07-3.66-1.6-5.93-1.6-2.96,0-5.45,1.04-7.49,3.11s-3.06,4.61-3.06,7.61,1.02,5.54,3.06,7.61,4.54,3.11,7.49,3.11c2.27,0,4.24-.53,5.91-1.6Z"/>
          <path class="st9" d="M424.5-411.04c0,.8.25,1.46.74,1.96.49.5,1.15.76,1.98.76.71,0,1.36-.21,1.96-.62l.38,1c-.76.5-1.58.76-2.47.76-1.12,0-2.03-.35-2.73-1.05-.7-.7-1.05-1.62-1.05-2.77v-23.02h1.2v22.99Z"/>
          <path class="st9" d="M446.85-422.21c1.66,1.65,2.49,3.72,2.49,6.22s-.83,4.61-2.49,6.27-3.75,2.49-6.27,2.49-4.55-.83-6.22-2.49c-1.67-1.66-2.51-3.75-2.51-6.27s.84-4.57,2.51-6.22c1.67-1.65,3.75-2.47,6.22-2.47s4.61.83,6.27,2.47ZM446-410.5c1.46-1.47,2.18-3.3,2.18-5.5s-.73-4.01-2.18-5.45c-1.45-1.43-3.26-2.15-5.41-2.15s-3.95.72-5.39,2.15-2.17,3.25-2.17,5.45.73,4.03,2.18,5.5c1.45,1.47,3.25,2.2,5.38,2.2s3.96-.73,5.41-2.2Z"/>
          <path class="st9" d="M469.31-407.57h-1.17v-4.12c-.6,1.4-1.52,2.49-2.77,3.28-1.25.79-2.71,1.19-4.38,1.19-2.04,0-3.68-.66-4.91-1.99s-1.86-3.07-1.86-5.22v-9.9h1.2v9.79c0,1.86.52,3.36,1.55,4.5,1.03,1.15,2.38,1.72,4.05,1.72,2.13,0,3.85-.68,5.15-2.03s1.96-3.16,1.96-5.43v-8.56h1.17v16.77Z"/>
          <path class="st9" d="M491.79-407.57h-1.2v-4.19c-.71,1.44-1.73,2.57-3.06,3.37-1.33.8-2.81,1.2-4.43,1.2-2.38,0-4.4-.81-6.05-2.44-1.65-1.63-2.47-3.73-2.47-6.32s.82-4.69,2.47-6.3c1.65-1.62,3.67-2.42,6.05-2.42,1.63,0,3.1.4,4.43,1.2,1.33.8,2.35,1.91,3.06,3.33v-13.88h1.2v26.46ZM488.37-410.43c1.48-1.42,2.22-3.27,2.22-5.53s-.74-4.08-2.22-5.5c-1.48-1.42-3.21-2.13-5.21-2.13s-3.84.71-5.28,2.11c-1.43,1.41-2.15,3.25-2.15,5.52s.72,4.14,2.15,5.55,3.19,2.11,5.28,2.11,3.73-.71,5.21-2.13Z"/>
        </g>
      </g>
      <g>
        <path class="st5" d="M579.72-403.41c3.33,8.63-1.64,16.95-7.92,20.63-.14.08-.28.2-.4.34-.98,1.09-.68,2.8.54,3.63h0c1.82,1.25,4.21,1.47,6.21.5,6.89-3.33,19.03-17.92,10.36-32.87-8.15-14.05-18.52-17.53-31.08-17.06-1,.04-1.83.08-1.83.08,0,0-10.3-10.58-25.98-3.35-14.25,6.57-15.28,20.37-15.28,20.37,0,0-1.6,1.58-2.35,2.4-3.45,3.77-6.14,7.92-7.85,12.29-4.38,11.16-.98,23.72,10.96,35.04,1.65,1.56,4.4,1.05,5.38-.98l3.01-6.25c.59-1.23.33-2.67-.61-3.67-9.99-10.56-9.04-21.61-1.13-30.14.31-.33.94-.98.94-.98,0,0,.17-12.51,12.65-17.69,12.62-5.24,19.85,3.73,19.85,3.73,0,0,1.55-.03,2.31-.02,9.83.23,18.49,4.33,22.23,13.99Z"/>
        <path class="st10" d="M598.02-401.17c-1.67-1.22-4,0-3.91,2.06l.24,5.37c.02.49.2.96.5,1.36,6.52,8.83,2.97,19.62-6.86,25.79-8.68,5.46-26.07,8.77-35.69,5.22-7.16-2.64-5.9-6.41-3.63-13.12,1.55-4.58,8.28-25.27,25.41-26.56,2.56-.19,3.11-3.91.66-4.71-.13-.04-.28-.08-.43-.11-1.09-.2-.85-.32-3.07-.4s-4.28.03-6.15,1.16l-25.57,16.64c-1.66,1.01-4.42,5.81-5.25,7.57-3.52,7.44-10.68,21.78-10.68,21.78-.62,1.29,0,2.85,1.35,3.34,5.18,1.86,11.46,3.07,18.97,3.45,12.76.64,34.08-.74,45.98-5.23,19.7-7.45,23.53-32.35,8.13-43.61Z"/>
        <path class="st6" d="M542.88-397.4c-.42.89.57,1.79,1.41,1.28l14.15-8.56c.87-.52.49-1.86-.52-1.85-1.09.01-6.29-.43-8.92-.66-.93-.08-1.8.43-2.19,1.27-1.15,2.49-3.46,7.51-3.93,8.53Z"/>
      </g>
    </g>
    <rect class="st9" x="-.49" y="-245.55" width="250.25" height="194.06"/>
    <rect class="st5" x="249.75" y="-245.55" width="250.25" height="194.06"/>
    <rect class="st0" x="500" y="-245.55" width="250.25" height="194.06"/>
    <rect class="st8" x="750.25" y="-245.55" width="250.25" height="194.06"/>
    <g>
      <path class="st5" d="M65.65-145.68c3.76,0,6.76,1.04,8.99,3.12,2.24,2.08,3.35,4.77,3.35,8.06s-1.12,5.98-3.35,8.06c-2.24,2.08-5.23,3.12-8.99,3.12h-7.81v-22.36h7.81ZM65.65-126.56c2.67,0,4.79-.73,6.37-2.2s2.37-3.38,2.37-5.74-.79-4.27-2.37-5.74-3.7-2.2-6.37-2.2h-4.24v15.89h4.24Z"/>
      <path class="st5" d="M98.39-123.32h-3.47v-1.9c-1.51,1.58-3.52,2.37-6.01,2.37-2.25,0-4.18-.82-5.79-2.45-1.61-1.64-2.42-3.73-2.42-6.29s.81-4.63,2.44-6.27c1.62-1.65,3.55-2.47,5.77-2.47,2.49,0,4.49.79,6.01,2.37v-1.9h3.47v16.55ZM93.28-127.51c1.09-1.06,1.64-2.42,1.64-4.09s-.55-3.03-1.64-4.09c-1.09-1.06-2.36-1.59-3.8-1.59-1.56,0-2.85.52-3.87,1.55-1.02,1.03-1.54,2.41-1.54,4.12s.51,3.09,1.54,4.12c1.02,1.03,2.31,1.55,3.87,1.55,1.45,0,2.71-.53,3.8-1.59Z"/>
      <path class="st5" d="M108.29-113.77h-3.87l4.22-9.95-7.14-16.19h3.87l5.17,11.95,5.31-11.95h3.87l-11.43,26.13Z"/>
      <g>
        <path class="st2" d="M60.37-118.16v4.36h-.26v-4.36h-1.83v-.23h3.93v.23h-1.84Z"/>
        <path class="st2" d="M66.39-113.79l-1.95-2.18h-1.1v2.18h-.25v-4.59h2.06c.42,0,.76.11,1.01.33.26.22.38.51.38.88s-.13.66-.38.88c-.26.22-.59.33-1.01.33h-.4l1.97,2.18h-.34ZM65.16-116.2c.35,0,.63-.09.84-.27.21-.18.32-.42.32-.71s-.11-.53-.32-.71c-.21-.18-.49-.27-.84-.27h-1.82v1.96h1.82Z"/>
        <path class="st2" d="M67.67-113.79v-4.59h.25v4.59h-.25Z"/>
        <path class="st2" d="M72.89-113.79l-.6-1.29h-2.71l-.6,1.29h-.26l2.1-4.59h.22l2.1,4.59h-.26ZM70.94-118.06l-1.25,2.74h2.51l-1.26-2.74ZM70.01-118.88l.82-.94h.23l.81.94h-.26l-.67-.76-.66.76h-.27Z"/>
        <path class="st2" d="M77.79-113.79h-.23l-3.34-4.17v4.17h-.25v-4.59h.23l3.34,4.17v-4.17h.25v4.59Z"/>
        <path class="st2" d="M83.57-116.09c0,.67-.21,1.23-.64,1.69s-.97.68-1.64.68-1.22-.23-1.67-.69-.68-1.02-.68-1.68.23-1.22.68-1.68,1.01-.69,1.67-.69c.5,0,.93.12,1.31.35.38.23.65.54.82.94l-.23.09c-.16-.35-.4-.62-.73-.83-.33-.21-.72-.31-1.17-.31-.59,0-1.09.21-1.5.62-.4.41-.61.92-.61,1.52s.2,1.1.61,1.52c.41.41.91.62,1.5.62s1.06-.19,1.43-.58c.37-.39.58-.87.6-1.44h-2.32v-.23h2.56v.11Z"/>
        <path class="st2" d="M88.39-115.76c0,.61-.17,1.11-.51,1.48s-.79.56-1.36.56-1.01-.19-1.36-.56c-.34-.38-.51-.87-.51-1.48v-2.62h.25v2.62c0,.54.15.97.45,1.31s.69.5,1.18.5.87-.16,1.17-.49c.3-.33.45-.76.45-1.31v-2.62h.25v2.62Z"/>
        <path class="st2" d="M92.78-113.79h-3.08v-4.59h.25v4.36h2.83v.23Z"/>
        <path class="st2" d="M97.26-117.77c.45.46.68,1.02.68,1.68s-.23,1.22-.68,1.68-1,.69-1.66.69-1.21-.23-1.66-.68-.68-1.02-.68-1.69.23-1.22.68-1.68,1.01-.69,1.66-.69,1.21.23,1.66.69ZM97.08-114.57c.4-.41.6-.92.6-1.52s-.2-1.1-.6-1.52c-.4-.41-.9-.62-1.48-.62s-1.08.21-1.49.62c-.4.41-.6.92-.6,1.52s.2,1.1.6,1.52c.4.41.9.62,1.49.62s1.08-.21,1.48-.62Z"/>
      </g>
      <g>
        <path class="st2" d="M69.05-150.55c1.07-.68,1.83-1.6,2.3-2.75l.77.22c-.53,1.3-1.39,2.34-2.59,3.12-1.21.78-2.62,1.17-4.24,1.17-2.1,0-3.88-.73-5.34-2.2-1.46-1.47-2.19-3.26-2.19-5.38s.73-3.91,2.19-5.38,3.24-2.2,5.34-2.2c1.61,0,3.01.39,4.23,1.16,1.21.77,2.08,1.8,2.61,3.09l-.75.26c-.47-1.15-1.24-2.07-2.31-2.75-1.07-.68-2.33-1.02-3.78-1.02-1.88,0-3.47.66-4.77,1.98-1.3,1.32-1.95,2.94-1.95,4.85s.65,3.53,1.95,4.85,2.89,1.98,4.77,1.98c1.45,0,2.7-.34,3.77-1.02Z"/>
        <path class="st2" d="M76.33-151.24c0,.51.16.93.47,1.25.31.32.73.48,1.26.48.45,0,.87-.13,1.25-.39l.24.64c-.48.32-1.01.48-1.58.48-.72,0-1.3-.22-1.74-.67-.45-.45-.67-1.03-.67-1.76v-14.67h.77v14.65Z"/>
        <path class="st2" d="M90.57-158.35c1.06,1.05,1.59,2.37,1.59,3.96s-.53,2.94-1.59,4c-1.06,1.06-2.39,1.59-4,1.59s-2.9-.53-3.96-1.59c-1.07-1.06-1.6-2.39-1.6-4s.53-2.91,1.6-3.96,2.39-1.58,3.96-1.58,2.94.53,4,1.58ZM90.03-150.89c.93-.93,1.39-2.1,1.39-3.5s-.46-2.56-1.39-3.47c-.93-.91-2.08-1.37-3.45-1.37s-2.52.46-3.44,1.37c-.92.91-1.38,2.07-1.38,3.47s.46,2.57,1.39,3.5c.93.93,2.07,1.4,3.43,1.4s2.52-.47,3.45-1.4Z"/>
        <path class="st2" d="M104.89-149.03h-.74v-2.63c-.38.89-.97,1.59-1.76,2.09-.8.5-1.73.76-2.79.76-1.3,0-2.34-.42-3.13-1.27-.79-.85-1.18-1.96-1.18-3.33v-6.31h.77v6.24c0,1.18.33,2.14.99,2.87.66.73,1.52,1.09,2.58,1.09,1.36,0,2.45-.43,3.28-1.29s1.25-2.01,1.25-3.46v-5.45h.74v10.69Z"/>
        <path class="st2" d="M119.21-149.03h-.77v-2.67c-.45.92-1.1,1.63-1.95,2.15-.85.51-1.79.77-2.82.77-1.52,0-2.8-.52-3.85-1.55-1.05-1.04-1.58-2.38-1.58-4.03s.53-2.99,1.58-4.02c1.05-1.03,2.34-1.54,3.85-1.54,1.04,0,1.98.26,2.82.77.85.51,1.5,1.22,1.95,2.12v-8.85h.77v16.86ZM117.03-150.84c.94-.91,1.41-2.08,1.41-3.53s-.47-2.6-1.41-3.5c-.94-.91-2.05-1.36-3.32-1.36s-2.45.45-3.36,1.35c-.91.9-1.37,2.07-1.37,3.51s.46,2.64,1.37,3.54c.91.9,2.03,1.35,3.36,1.35s2.38-.45,3.32-1.36Z"/>
      </g>
      <path class="st5" d="M175.25-146.37c2.13,5.5-1.04,10.8-5.05,13.14-.09.05-.18.13-.26.22-.63.69-.43,1.78.34,2.32h0c1.16.8,2.68.94,3.96.32,4.39-2.12,12.13-11.42,6.6-20.95-5.19-8.95-11.81-11.17-19.81-10.87-.64.02-1.17.05-1.17.05,0,0-6.56-6.74-16.56-2.14-9.08,4.18-9.74,12.98-9.74,12.98,0,0-1.02,1.01-1.5,1.53-2.2,2.41-3.91,5.05-5,7.83-2.79,7.11-.63,15.12,6.99,22.33,1.05,1,2.8.67,3.43-.63l1.92-3.98c.38-.78.21-1.7-.39-2.34-6.37-6.73-5.76-13.77-.72-19.21.2-.21.6-.62.6-.62,0,0,.11-7.97,8.06-11.27s12.65,2.37,12.65,2.37c0,0,.99-.02,1.48-.01,6.26.14,11.79,2.76,14.17,8.92Z"/>
      <path class="st10" d="M186.91-144.94c-1.06-.78-2.55,0-2.49,1.31l.15,3.42c.01.31.13.61.32.87,4.16,5.63,1.89,12.5-4.37,16.44-5.53,3.48-16.61,5.59-22.75,3.32-4.56-1.68-3.76-4.08-2.31-8.36.99-2.92,5.28-16.11,16.19-16.93,1.63-.12,1.98-2.49.42-3-.09-.03-.18-.05-.27-.07-.69-.13-.54-.21-1.96-.25s-2.73.02-3.92.74l-16.3,10.6c-1.06.64-2.81,3.7-3.35,4.82-2.24,4.74-6.81,13.88-6.81,13.88-.39.82,0,1.82.86,2.13,3.3,1.18,7.3,1.96,12.09,2.2,8.13.4,21.72-.47,29.3-3.34,12.56-4.75,14.99-20.62,5.18-27.8Z"/>
      <path class="st6" d="M151.77-142.54c-.27.57.36,1.14.9.82l9.02-5.46c.55-.33.31-1.19-.33-1.18-.7,0-4.01-.28-5.68-.42-.59-.05-1.15.27-1.39.81-.73,1.59-2.2,4.79-2.51,5.43Z"/>
    </g>
    <g>
      <g>
        <path class="st2" d="M313.55-145.68c3.76,0,6.76,1.04,8.99,3.12,2.24,2.08,3.35,4.77,3.35,8.06s-1.12,5.98-3.35,8.06c-2.24,2.08-5.23,3.12-8.99,3.12h-7.81v-22.36h7.81ZM313.55-126.56c2.67,0,4.79-.73,6.37-2.2s2.37-3.38,2.37-5.74-.79-4.27-2.37-5.74-3.7-2.2-6.37-2.2h-4.24v15.89h4.24Z"/>
        <path class="st2" d="M346.29-123.32h-3.47v-1.9c-1.51,1.58-3.52,2.37-6.01,2.37-2.25,0-4.18-.82-5.79-2.45-1.61-1.64-2.42-3.73-2.42-6.29s.81-4.63,2.44-6.27c1.62-1.65,3.55-2.47,5.77-2.47,2.49,0,4.49.79,6.01,2.37v-1.9h3.47v16.55ZM341.18-127.51c1.09-1.06,1.64-2.42,1.64-4.09s-.55-3.03-1.64-4.09c-1.09-1.06-2.36-1.59-3.8-1.59-1.56,0-2.85.52-3.87,1.55-1.02,1.03-1.54,2.41-1.54,4.12s.51,3.09,1.54,4.12c1.02,1.03,2.31,1.55,3.87,1.55,1.45,0,2.71-.53,3.8-1.59Z"/>
        <path class="st2" d="M356.18-113.77h-3.87l4.22-9.95-7.14-16.19h3.87l5.17,11.95,5.31-11.95h3.87l-11.43,26.13Z"/>
      </g>
      <g>
        <path class="st9" d="M308.26-118.16v4.36h-.26v-4.36h-1.83v-.23h3.93v.23h-1.84Z"/>
        <path class="st9" d="M314.29-113.79l-1.95-2.18h-1.1v2.18h-.25v-4.59h2.06c.42,0,.76.11,1.01.33.26.22.38.51.38.88s-.13.66-.38.88c-.26.22-.59.33-1.01.33h-.4l1.97,2.18h-.34ZM313.05-116.2c.35,0,.63-.09.84-.27.21-.18.32-.42.32-.71s-.11-.53-.32-.71c-.21-.18-.49-.27-.84-.27h-1.82v1.96h1.82Z"/>
        <path class="st9" d="M315.56-113.79v-4.59h.25v4.59h-.25Z"/>
        <path class="st9" d="M320.79-113.79l-.6-1.29h-2.71l-.6,1.29h-.26l2.1-4.59h.22l2.1,4.59h-.26ZM318.84-118.06l-1.25,2.74h2.51l-1.26-2.74ZM317.91-118.88l.82-.94h.23l.81.94h-.26l-.67-.76-.66.76h-.27Z"/>
        <path class="st9" d="M325.69-113.79h-.23l-3.34-4.17v4.17h-.25v-4.59h.23l3.34,4.17v-4.17h.25v4.59Z"/>
        <path class="st9" d="M331.47-116.09c0,.67-.21,1.23-.64,1.69s-.97.68-1.64.68-1.22-.23-1.67-.69-.68-1.02-.68-1.68.23-1.22.68-1.68,1.01-.69,1.67-.69c.5,0,.93.12,1.31.35.38.23.65.54.82.94l-.23.09c-.16-.35-.4-.62-.73-.83-.33-.21-.72-.31-1.17-.31-.59,0-1.09.21-1.5.62-.4.41-.61.92-.61,1.52s.2,1.1.61,1.52c.41.41.91.62,1.5.62s1.06-.19,1.43-.58c.37-.39.58-.87.6-1.44h-2.32v-.23h2.56v.11Z"/>
        <path class="st9" d="M336.29-115.76c0,.61-.17,1.11-.51,1.48s-.79.56-1.36.56-1.01-.19-1.36-.56c-.34-.38-.51-.87-.51-1.48v-2.62h.25v2.62c0,.54.15.97.45,1.31s.69.5,1.18.5.87-.16,1.17-.49c.3-.33.45-.76.45-1.31v-2.62h.25v2.62Z"/>
        <path class="st9" d="M340.68-113.79h-3.08v-4.59h.25v4.36h2.83v.23Z"/>
        <path class="st9" d="M345.16-117.77c.45.46.68,1.02.68,1.68s-.23,1.22-.68,1.68-1,.69-1.66.69-1.21-.23-1.66-.68-.68-1.02-.68-1.69.23-1.22.68-1.68,1.01-.69,1.66-.69,1.21.23,1.66.69ZM344.98-114.57c.4-.41.6-.92.6-1.52s-.2-1.1-.6-1.52c-.4-.41-.9-.62-1.48-.62s-1.08.21-1.49.62c-.4.41-.6.92-.6,1.52s.2,1.1.6,1.52c.4.41.9.62,1.49.62s1.08-.21,1.48-.62Z"/>
      </g>
      <g>
        <path class="st9" d="M316.95-150.55c1.07-.68,1.83-1.6,2.3-2.75l.77.22c-.53,1.3-1.39,2.34-2.59,3.12-1.21.78-2.62,1.17-4.24,1.17-2.1,0-3.88-.73-5.34-2.2-1.46-1.47-2.19-3.26-2.19-5.38s.73-3.91,2.19-5.38,3.24-2.2,5.34-2.2c1.61,0,3.01.39,4.23,1.16,1.21.77,2.08,1.8,2.61,3.09l-.75.26c-.47-1.15-1.24-2.07-2.31-2.75-1.07-.68-2.33-1.02-3.78-1.02-1.88,0-3.47.66-4.77,1.98-1.3,1.32-1.95,2.94-1.95,4.85s.65,3.53,1.95,4.85,2.89,1.98,4.77,1.98c1.45,0,2.7-.34,3.77-1.02Z"/>
        <path class="st9" d="M324.23-151.24c0,.51.16.93.47,1.25.31.32.73.48,1.26.48.45,0,.87-.13,1.25-.39l.24.64c-.48.32-1.01.48-1.58.48-.72,0-1.3-.22-1.74-.67-.45-.45-.67-1.03-.67-1.76v-14.67h.77v14.65Z"/>
        <path class="st9" d="M338.47-158.35c1.06,1.05,1.59,2.37,1.59,3.96s-.53,2.94-1.59,4c-1.06,1.06-2.39,1.59-4,1.59s-2.9-.53-3.96-1.59c-1.07-1.06-1.6-2.39-1.6-4s.53-2.91,1.6-3.96,2.39-1.58,3.96-1.58,2.94.53,4,1.58ZM337.93-150.89c.93-.93,1.39-2.1,1.39-3.5s-.46-2.56-1.39-3.47c-.93-.91-2.08-1.37-3.45-1.37s-2.52.46-3.44,1.37c-.92.91-1.38,2.07-1.38,3.47s.46,2.57,1.39,3.5c.93.93,2.07,1.4,3.43,1.4s2.52-.47,3.45-1.4Z"/>
        <path class="st9" d="M352.79-149.03h-.74v-2.63c-.38.89-.97,1.59-1.76,2.09-.8.5-1.73.76-2.79.76-1.3,0-2.34-.42-3.13-1.27-.79-.85-1.18-1.96-1.18-3.33v-6.31h.77v6.24c0,1.18.33,2.14.99,2.87.66.73,1.52,1.09,2.58,1.09,1.36,0,2.45-.43,3.28-1.29s1.25-2.01,1.25-3.46v-5.45h.74v10.69Z"/>
        <path class="st9" d="M367.11-149.03h-.77v-2.67c-.45.92-1.1,1.63-1.95,2.15-.85.51-1.79.77-2.82.77-1.52,0-2.8-.52-3.85-1.55-1.05-1.04-1.58-2.38-1.58-4.03s.53-2.99,1.58-4.02c1.05-1.03,2.34-1.54,3.85-1.54,1.04,0,1.98.26,2.82.77.85.51,1.5,1.22,1.95,2.12v-8.85h.77v16.86ZM364.93-150.84c.94-.91,1.41-2.08,1.41-3.53s-.47-2.6-1.41-3.5c-.94-.91-2.05-1.36-3.32-1.36s-2.45.45-3.36,1.35c-.91.9-1.37,2.07-1.37,3.51s.46,2.64,1.37,3.54c.91.9,2.03,1.35,3.36,1.35s2.38-.45,3.32-1.36Z"/>
      </g>
      <path class="st2" d="M423.15-146.37c2.13,5.5-1.04,10.8-5.05,13.14-.09.05-.18.13-.26.22-.63.69-.43,1.78.34,2.32h0c1.16.8,2.68.94,3.96.32,4.39-2.12,12.13-11.42,6.6-20.95-5.19-8.95-11.81-11.17-19.81-10.87-.64.02-1.17.05-1.17.05,0,0-6.56-6.74-16.56-2.14-9.08,4.18-9.74,12.98-9.74,12.98,0,0-1.02,1.01-1.5,1.53-2.2,2.41-3.91,5.05-5,7.83-2.79,7.11-.63,15.12,6.99,22.33,1.05,1,2.8.67,3.43-.63l1.92-3.98c.38-.78.21-1.7-.39-2.34-6.37-6.73-5.76-13.77-.72-19.21.2-.21.6-.62.6-.62,0,0,.11-7.97,8.06-11.27,8.04-3.34,12.65,2.37,12.65,2.37,0,0,.99-.02,1.48-.01,6.26.14,11.79,2.76,14.17,8.92Z"/>
      <path class="st10" d="M434.81-144.94c-1.06-.78-2.55,0-2.49,1.31l.15,3.42c.01.31.13.61.32.87,4.16,5.63,1.89,12.5-4.37,16.44-5.53,3.48-16.61,5.59-22.75,3.32-4.56-1.68-3.76-4.08-2.31-8.36.99-2.92,5.28-16.11,16.19-16.93,1.63-.12,1.98-2.49.42-3-.09-.03-.18-.05-.27-.07-.69-.13-.54-.21-1.96-.25s-2.73.02-3.92.74l-16.3,10.6c-1.06.64-2.81,3.7-3.35,4.82-2.24,4.74-6.81,13.88-6.81,13.88-.39.82,0,1.82.86,2.13,3.3,1.18,7.3,1.96,12.09,2.2,8.13.4,21.72-.47,29.3-3.34,12.56-4.75,14.99-20.62,5.18-27.8Z"/>
      <path class="st6" d="M399.67-142.54c-.27.57.36,1.14.9.82l9.02-5.46c.55-.33.31-1.19-.33-1.18-.7,0-4.01-.28-5.68-.42-.59-.05-1.15.27-1.39.81-.73,1.59-2.2,4.79-2.51,5.43Z"/>
    </g>
    <g>
      <path class="st1" d="M564.91-145.68c3.76,0,6.76,1.04,8.99,3.12,2.24,2.08,3.35,4.77,3.35,8.06s-1.12,5.98-3.35,8.06c-2.24,2.08-5.23,3.12-8.99,3.12h-7.81v-22.36h7.81ZM564.91-126.56c2.67,0,4.79-.73,6.37-2.2s2.37-3.38,2.37-5.74-.79-4.27-2.37-5.74-3.7-2.2-6.37-2.2h-4.24v15.89h4.24Z"/>
      <path class="st1" d="M597.65-123.32h-3.47v-1.9c-1.51,1.58-3.52,2.37-6.01,2.37-2.25,0-4.18-.82-5.79-2.45-1.61-1.64-2.42-3.73-2.42-6.29s.81-4.63,2.44-6.27c1.62-1.65,3.55-2.47,5.77-2.47,2.49,0,4.49.79,6.01,2.37v-1.9h3.47v16.55ZM592.54-127.51c1.09-1.06,1.64-2.42,1.64-4.09s-.55-3.03-1.64-4.09c-1.09-1.06-2.36-1.59-3.8-1.59-1.56,0-2.85.52-3.87,1.55-1.02,1.03-1.54,2.41-1.54,4.12s.51,3.09,1.54,4.12c1.02,1.03,2.31,1.55,3.87,1.55,1.45,0,2.71-.53,3.8-1.59Z"/>
      <path class="st1" d="M607.54-113.77h-3.87l4.22-9.95-7.14-16.19h3.87l5.17,11.95,5.31-11.95h3.87l-11.43,26.13Z"/>
      <g>
        <path class="st3" d="M559.62-118.16v4.37h-.26v-4.37h-1.83v-.23h3.93v.23h-1.84Z"/>
        <path class="st3" d="M565.65-113.8l-1.95-2.18h-1.1v2.18h-.25v-4.59h2.06c.42,0,.76.11,1.01.33s.38.51.38.88-.13.66-.38.88-.59.33-1.01.33h-.4l1.97,2.18h-.34ZM564.42-116.2c.35,0,.63-.09.84-.27.21-.18.32-.42.32-.71s-.11-.53-.32-.71c-.21-.18-.49-.27-.84-.27h-1.82v1.96h1.82Z"/>
        <path class="st3" d="M566.92-113.8v-4.59h.25v4.59h-.25Z"/>
        <path class="st3" d="M572.15-113.8l-.6-1.3h-2.71l-.6,1.3h-.26l2.1-4.59h.22l2.1,4.59h-.26ZM570.2-118.06l-1.25,2.74h2.52l-1.26-2.74ZM569.27-118.88l.82-.94h.23l.82.94h-.26l-.67-.76-.67.76h-.27Z"/>
        <path class="st3" d="M577.05-113.8h-.23l-3.35-4.17v4.17h-.25v-4.59h.23l3.35,4.17v-4.17h.25v4.59Z"/>
        <path class="st3" d="M582.83-116.09c0,.67-.21,1.23-.64,1.69-.43.46-.97.69-1.65.69s-1.22-.23-1.68-.69c-.45-.46-.68-1.02-.68-1.68s.23-1.22.68-1.68c.45-.46,1.01-.69,1.68-.69.5,0,.93.12,1.31.35s.65.54.82.94l-.23.09c-.16-.35-.4-.62-.73-.83-.33-.21-.72-.31-1.17-.31-.59,0-1.09.21-1.5.62s-.61.92-.61,1.52.2,1.1.61,1.52.91.62,1.5.62,1.06-.19,1.43-.58c.37-.39.58-.87.6-1.44h-2.32v-.23h2.56v.11Z"/>
        <path class="st3" d="M587.65-115.76c0,.61-.17,1.11-.51,1.48s-.8.56-1.36.56-1.01-.19-1.36-.56c-.34-.37-.51-.87-.51-1.48v-2.63h.25v2.63c0,.54.15.97.45,1.31s.69.5,1.18.5.88-.16,1.17-.49.45-.77.45-1.31v-2.63h.25v2.63Z"/>
        <path class="st3" d="M592.04-113.8h-3.08v-4.59h.25v4.37h2.83v.23Z"/>
        <path class="st3" d="M596.52-117.78c.45.46.68,1.02.68,1.68s-.23,1.22-.68,1.68c-.45.46-1.01.69-1.66.69s-1.21-.23-1.67-.69c-.45-.46-.68-1.02-.68-1.69s.23-1.22.68-1.68c.45-.46,1.01-.69,1.67-.69s1.21.23,1.66.69ZM596.34-114.57c.4-.41.6-.92.6-1.52s-.2-1.1-.6-1.52-.9-.62-1.48-.62-1.09.21-1.49.62-.6.92-.6,1.52.2,1.1.6,1.52.9.62,1.49.62,1.08-.21,1.48-.62Z"/>
      </g>
      <g>
        <path class="st3" d="M568.32-150.55c1.07-.68,1.83-1.6,2.3-2.75l.77.22c-.53,1.3-1.39,2.34-2.6,3.12-1.2.78-2.62,1.17-4.24,1.17-2.1,0-3.88-.73-5.34-2.2s-2.19-3.26-2.19-5.38.73-3.91,2.19-5.38,3.24-2.2,5.34-2.2c1.61,0,3.02.39,4.23,1.16,1.21.77,2.08,1.8,2.61,3.09l-.74.26c-.47-1.15-1.24-2.07-2.31-2.75-1.07-.68-2.33-1.02-3.78-1.02-1.88,0-3.48.66-4.78,1.98s-1.95,2.94-1.95,4.85.65,3.53,1.95,4.85,2.89,1.98,4.78,1.98c1.45,0,2.7-.34,3.77-1.02Z"/>
        <path class="st3" d="M575.59-151.24c0,.51.16.93.47,1.25.31.32.73.48,1.26.48.45,0,.87-.13,1.25-.39l.24.64c-.48.32-1.01.48-1.58.48-.72,0-1.3-.22-1.74-.67-.45-.45-.67-1.03-.67-1.76v-14.68h.77v14.65Z"/>
        <path class="st3" d="M589.83-158.36c1.06,1.05,1.59,2.37,1.59,3.96s-.53,2.94-1.59,4c-1.06,1.06-2.39,1.59-4,1.59s-2.9-.53-3.96-1.59c-1.07-1.06-1.6-2.39-1.6-4s.53-2.91,1.6-3.96c1.07-1.05,2.39-1.58,3.96-1.58s2.94.53,4,1.58ZM589.29-150.89c.93-.93,1.39-2.1,1.39-3.5s-.46-2.56-1.39-3.47-2.08-1.37-3.45-1.37-2.52.46-3.44,1.37c-.92.91-1.38,2.07-1.38,3.47s.46,2.57,1.39,3.5c.93.93,2.07,1.4,3.43,1.4s2.52-.47,3.45-1.4Z"/>
        <path class="st3" d="M604.15-149.03h-.74v-2.63c-.38.89-.97,1.59-1.76,2.09-.8.5-1.73.76-2.79.76-1.3,0-2.34-.42-3.13-1.27-.79-.85-1.18-1.96-1.18-3.33v-6.31h.77v6.24c0,1.18.33,2.14.99,2.87.66.73,1.52,1.1,2.58,1.1,1.36,0,2.45-.43,3.29-1.29s1.25-2.02,1.25-3.46v-5.45h.74v10.69Z"/>
        <path class="st3" d="M618.47-149.03h-.77v-2.67c-.45.92-1.1,1.64-1.95,2.15-.85.51-1.79.77-2.83.77-1.52,0-2.8-.52-3.86-1.56-1.05-1.04-1.58-2.38-1.58-4.03s.53-2.99,1.58-4.02c1.05-1.03,2.34-1.54,3.86-1.54,1.04,0,1.98.26,2.83.77.85.51,1.5,1.22,1.95,2.12v-8.85h.77v16.87ZM616.29-150.84c.94-.91,1.41-2.08,1.41-3.53s-.47-2.6-1.41-3.5c-.94-.91-2.05-1.36-3.32-1.36s-2.45.45-3.36,1.35-1.37,2.07-1.37,3.52.46,2.64,1.37,3.54,2.03,1.35,3.36,1.35,2.38-.45,3.32-1.36Z"/>
      </g>
      <path class="st1" d="M674.51-146.37c2.13,5.5-1.04,10.8-5.05,13.14-.09.05-.18.13-.26.22-.63.69-.43,1.78.34,2.32h0c1.16.8,2.68.94,3.96.32,4.39-2.12,12.13-11.42,6.6-20.95-5.19-8.95-11.81-11.17-19.81-10.87-.64.02-1.17.05-1.17.05,0,0-6.56-6.74-16.56-2.14-9.08,4.18-9.74,12.98-9.74,12.98,0,0-1.02,1.01-1.5,1.53-2.2,2.41-3.91,5.05-5,7.83-2.79,7.11-.63,15.12,6.99,22.33,1.05,1,2.8.67,3.43-.63l1.92-3.98c.38-.78.21-1.7-.39-2.34-6.37-6.73-5.76-13.77-.72-19.21.2-.21.6-.62.6-.62,0,0,.11-7.97,8.06-11.27s12.65,2.37,12.65,2.37c0,0,.99-.02,1.48-.01,6.26.14,11.79,2.76,14.17,8.92Z"/>
      <path class="st4" d="M686.17-144.94c-1.06-.78-2.55,0-2.49,1.31l.15,3.42c.01.31.13.61.32.87,4.16,5.63,1.89,12.5-4.37,16.44-5.53,3.48-16.61,5.59-22.75,3.32-4.56-1.68-3.76-4.08-2.31-8.36.99-2.92,5.28-16.11,16.19-16.93,1.63-.12,1.98-2.49.42-3-.09-.03-.18-.05-.27-.07-.69-.13-.54-.21-1.96-.25s-2.73.02-3.92.74l-16.3,10.6c-1.06.64-2.81,3.7-3.35,4.82-2.24,4.74-6.81,13.88-6.81,13.88-.39.82,0,1.82.86,2.13,3.3,1.18,7.3,1.96,12.09,2.2,8.13.4,21.72-.47,29.3-3.34,12.56-4.75,14.99-20.62,5.18-27.8Z"/>
      <path class="st3" d="M651.03-142.54c-.27.57.36,1.14.9.82l9.02-5.46c.55-.33.31-1.19-.33-1.18-.7,0-4.01-.28-5.68-.42-.59-.05-1.15.27-1.39.81-.73,1.59-2.2,4.79-2.51,5.43Z"/>
    </g>
    <g>
      <g>
        <g>
          <path class="st2" d="M827.38-145.68c3.76,0,6.76,1.04,8.99,3.12,2.24,2.08,3.35,4.77,3.35,8.06s-1.12,5.98-3.35,8.06c-2.24,2.08-5.23,3.12-8.99,3.12h-7.81v-22.36h7.81ZM827.38-126.56c2.67,0,4.79-.73,6.37-2.2s2.37-3.38,2.37-5.74-.79-4.27-2.37-5.74-3.7-2.2-6.37-2.2h-4.24v15.89h4.24Z"/>
          <path class="st2" d="M860.12-123.32h-3.47v-1.9c-1.51,1.58-3.52,2.37-6.01,2.37-2.25,0-4.18-.82-5.79-2.45-1.61-1.64-2.42-3.73-2.42-6.29s.81-4.63,2.44-6.27c1.62-1.65,3.55-2.47,5.77-2.47,2.49,0,4.49.79,6.01,2.37v-1.9h3.47v16.55ZM855.01-127.51c1.09-1.06,1.64-2.42,1.64-4.09s-.55-3.03-1.64-4.09c-1.09-1.06-2.36-1.59-3.8-1.59-1.56,0-2.85.52-3.87,1.55-1.02,1.03-1.54,2.41-1.54,4.12s.51,3.09,1.54,4.12c1.02,1.03,2.31,1.55,3.87,1.55,1.45,0,2.71-.53,3.8-1.59Z"/>
          <path class="st2" d="M870.01-113.77h-3.87l4.22-9.95-7.14-16.19h3.87l5.17,11.95,5.31-11.95h3.87l-11.43,26.13Z"/>
        </g>
        <g>
          <path class="st2" d="M822.1-118.16v4.36h-.26v-4.36h-1.83v-.23h3.93v.23h-1.84Z"/>
          <path class="st2" d="M828.12-113.79l-1.95-2.18h-1.1v2.18h-.25v-4.59h2.06c.42,0,.76.11,1.01.33.26.22.38.51.38.88s-.13.66-.38.88c-.26.22-.59.33-1.01.33h-.4l1.97,2.18h-.34ZM826.89-116.2c.35,0,.63-.09.84-.27.21-.18.32-.42.32-.71s-.11-.53-.32-.71c-.21-.18-.49-.27-.84-.27h-1.82v1.96h1.82Z"/>
          <path class="st2" d="M829.4-113.79v-4.59h.25v4.59h-.25Z"/>
          <path class="st2" d="M834.62-113.79l-.6-1.29h-2.71l-.6,1.29h-.26l2.1-4.59h.22l2.1,4.59h-.26ZM832.67-118.06l-1.25,2.74h2.51l-1.26-2.74ZM831.74-118.88l.82-.94h.23l.81.94h-.26l-.67-.76-.66.76h-.27Z"/>
          <path class="st2" d="M839.52-113.79h-.23l-3.34-4.17v4.17h-.25v-4.59h.23l3.34,4.17v-4.17h.25v4.59Z"/>
          <path class="st2" d="M845.3-116.09c0,.67-.21,1.23-.64,1.69s-.97.68-1.64.68-1.22-.23-1.67-.69-.68-1.02-.68-1.68.23-1.22.68-1.68,1.01-.69,1.67-.69c.5,0,.93.12,1.31.35.38.23.65.54.82.94l-.23.09c-.16-.35-.4-.62-.73-.83-.33-.21-.72-.31-1.17-.31-.59,0-1.09.21-1.5.62-.4.41-.61.92-.61,1.52s.2,1.1.61,1.52c.41.41.91.62,1.5.62s1.06-.19,1.43-.58c.37-.39.58-.87.6-1.44h-2.32v-.23h2.56v.11Z"/>
          <path class="st2" d="M850.12-115.76c0,.61-.17,1.11-.51,1.48s-.79.56-1.36.56-1.01-.19-1.36-.56c-.34-.38-.51-.87-.51-1.48v-2.62h.25v2.62c0,.54.15.97.45,1.31s.69.5,1.18.5.87-.16,1.17-.49c.3-.33.45-.76.45-1.31v-2.62h.25v2.62Z"/>
          <path class="st2" d="M854.51-113.79h-3.08v-4.59h.25v4.36h2.83v.23Z"/>
          <path class="st2" d="M858.99-117.77c.45.46.68,1.02.68,1.68s-.23,1.22-.68,1.68-1,.69-1.66.69-1.21-.23-1.66-.68-.68-1.02-.68-1.69.23-1.22.68-1.68,1.01-.69,1.66-.69,1.21.23,1.66.69ZM858.81-114.57c.4-.41.6-.92.6-1.52s-.2-1.1-.6-1.52c-.4-.41-.9-.62-1.48-.62s-1.08.21-1.49.62c-.4.41-.6.92-.6,1.52s.2,1.1.6,1.52c.4.41.9.62,1.49.62s1.08-.21,1.48-.62Z"/>
        </g>
        <g>
          <path class="st2" d="M830.78-150.55c1.07-.68,1.83-1.6,2.3-2.75l.77.22c-.53,1.3-1.39,2.34-2.59,3.12-1.21.78-2.62,1.17-4.24,1.17-2.1,0-3.88-.73-5.34-2.2-1.46-1.47-2.19-3.26-2.19-5.38s.73-3.91,2.19-5.38,3.24-2.2,5.34-2.2c1.61,0,3.01.39,4.23,1.16,1.21.77,2.08,1.8,2.61,3.09l-.75.26c-.47-1.15-1.24-2.07-2.31-2.75-1.07-.68-2.33-1.02-3.78-1.02-1.88,0-3.47.66-4.77,1.98-1.3,1.32-1.95,2.94-1.95,4.85s.65,3.53,1.95,4.85,2.89,1.98,4.77,1.98c1.45,0,2.7-.34,3.77-1.02Z"/>
          <path class="st2" d="M838.06-151.24c0,.51.16.93.47,1.25.31.32.73.48,1.26.48.45,0,.87-.13,1.25-.39l.24.64c-.48.32-1.01.48-1.58.48-.72,0-1.3-.22-1.74-.67-.45-.45-.67-1.03-.67-1.76v-14.67h.77v14.65Z"/>
          <path class="st2" d="M852.3-158.35c1.06,1.05,1.59,2.37,1.59,3.96s-.53,2.94-1.59,4c-1.06,1.06-2.39,1.59-4,1.59s-2.9-.53-3.96-1.59c-1.07-1.06-1.6-2.39-1.6-4s.53-2.91,1.6-3.96,2.39-1.58,3.96-1.58,2.94.53,4,1.58ZM851.76-150.89c.93-.93,1.39-2.1,1.39-3.5s-.46-2.56-1.39-3.47c-.93-.91-2.08-1.37-3.45-1.37s-2.52.46-3.44,1.37c-.92.91-1.38,2.07-1.38,3.47s.46,2.57,1.39,3.5c.93.93,2.07,1.4,3.43,1.4s2.52-.47,3.45-1.4Z"/>
          <path class="st2" d="M866.62-149.03h-.74v-2.63c-.38.89-.97,1.59-1.76,2.09-.8.5-1.73.76-2.79.76-1.3,0-2.34-.42-3.13-1.27-.79-.85-1.18-1.96-1.18-3.33v-6.31h.77v6.24c0,1.18.33,2.14.99,2.87.66.73,1.52,1.09,2.58,1.09,1.36,0,2.45-.43,3.28-1.29s1.25-2.01,1.25-3.46v-5.45h.74v10.69Z"/>
          <path class="st2" d="M880.94-149.03h-.77v-2.67c-.45.92-1.1,1.63-1.95,2.15-.85.51-1.79.77-2.82.77-1.52,0-2.8-.52-3.85-1.55-1.05-1.04-1.58-2.38-1.58-4.03s.53-2.99,1.58-4.02c1.05-1.03,2.34-1.54,3.85-1.54,1.04,0,1.98.26,2.82.77.85.51,1.5,1.22,1.95,2.12v-8.85h.77v16.86ZM878.76-150.84c.94-.91,1.41-2.08,1.41-3.53s-.47-2.6-1.41-3.5c-.94-.91-2.05-1.36-3.32-1.36s-2.45.45-3.36,1.35c-.91.9-1.37,2.07-1.37,3.51s.46,2.64,1.37,3.54c.91.9,2.03,1.35,3.36,1.35s2.38-.45,3.32-1.36Z"/>
        </g>
      </g>
      <g>
        <path class="st2" d="M936.98-146.37c2.13,5.5-1.04,10.8-5.05,13.14-.09.05-.18.13-.26.22-.63.69-.43,1.78.34,2.32h0c1.16.8,2.68.94,3.96.32,4.39-2.12,12.13-11.42,6.6-20.95-5.19-8.95-11.81-11.17-19.81-10.87-.64.02-1.17.05-1.17.05,0,0-6.56-6.74-16.56-2.14-9.08,4.18-9.74,12.98-9.74,12.98,0,0-1.02,1.01-1.5,1.53-2.2,2.41-3.91,5.05-5,7.83-2.79,7.11-.63,15.12,6.99,22.33,1.05,1,2.8.67,3.43-.63l1.92-3.98c.38-.78.21-1.7-.39-2.34-6.37-6.73-5.76-13.77-.72-19.21.2-.21.6-.62.6-.62,0,0,.11-7.97,8.06-11.27s12.65,2.37,12.65,2.37c0,0,.99-.02,1.48-.01,6.26.14,11.79,2.76,14.17,8.92Z"/>
        <path class="st2" d="M948.64-144.94c-1.06-.78-2.55,0-2.49,1.31l.15,3.42c.01.31.13.61.32.87,4.16,5.63,1.89,12.5-4.37,16.44-5.53,3.48-16.61,5.59-22.75,3.32-4.56-1.68-3.76-4.08-2.31-8.36.99-2.92,5.28-16.11,16.19-16.93,1.63-.12,1.98-2.49.42-3-.09-.03-.18-.05-.27-.07-.69-.13-.54-.21-1.96-.25s-2.73.02-3.92.74l-16.3,10.6c-1.06.64-2.81,3.7-3.35,4.82-2.24,4.74-6.81,13.88-6.81,13.88-.39.82,0,1.82.86,2.13,3.3,1.18,7.3,1.96,12.09,2.2,8.13.4,21.72-.47,29.3-3.34,12.56-4.75,14.99-20.62,5.18-27.8Z"/>
        <path class="st2" d="M913.5-142.54c-.27.57.36,1.14.9.82l9.02-5.46c.55-.33.31-1.19-.33-1.18-.7,0-4.01-.28-5.68-.42-.59-.05-1.15.27-1.39.81-.73,1.59-2.2,4.79-2.51,5.43Z"/>
      </g>
    </g>
  </g>
  <g>
    <g>
      <g>
        <path class="st5" d="M531.75,183.78c4.48,0,8.06,1.24,10.72,3.72,2.67,2.48,4,5.68,4,9.61s-1.33,7.13-4,9.61c-2.67,2.48-6.24,3.72-10.72,3.72h-9.31v-26.66h9.31ZM531.75,206.58c3.18,0,5.72-.88,7.6-2.63s2.83-4.03,2.83-6.84-.94-5.09-2.83-6.84-4.42-2.63-7.6-2.63h-5.05v18.94h5.05Z"/>
        <path class="st5" d="M570.78,210.44h-4.14v-2.27c-1.8,1.88-4.19,2.83-7.16,2.83-2.68,0-4.98-.97-6.9-2.92-1.92-1.95-2.88-4.45-2.88-7.5s.97-5.52,2.9-7.48c1.94-1.96,4.23-2.94,6.88-2.94,2.97,0,5.36.94,7.16,2.83v-2.27h4.14v19.74ZM564.69,205.45c1.3-1.26,1.95-2.89,1.95-4.87s-.65-3.61-1.95-4.87c-1.3-1.26-2.81-1.89-4.54-1.89-1.86,0-3.4.62-4.62,1.85-1.22,1.23-1.83,2.87-1.83,4.91s.61,3.68,1.83,4.91c1.22,1.23,2.76,1.85,4.62,1.85,1.72,0,3.24-.63,4.54-1.89Z"/>
        <path class="st5" d="M582.58,221.83h-4.62l5.03-11.86-8.52-19.3h4.62l6.17,14.25,6.33-14.25h4.62l-13.63,31.16Z"/>
      </g>
      <g>
        <path class="st9" d="M426.95,207.08c1.94-1.23,3.33-2.9,4.18-4.99l1.39.4c-.96,2.36-2.53,4.25-4.71,5.67-2.19,1.42-4.76,2.13-7.7,2.13-3.82,0-7.06-1.33-9.71-4-2.65-2.67-3.98-5.92-3.98-9.77s1.33-7.1,3.98-9.77c2.65-2.67,5.89-4,9.71-4,2.92,0,5.48.7,7.68,2.11s3.78,3.28,4.74,5.61l-1.35.48c-.85-2.1-2.25-3.76-4.2-5-1.95-1.23-4.24-1.85-6.87-1.85-3.42,0-6.31,1.2-8.67,3.6-2.36,2.4-3.54,5.34-3.54,8.82s1.18,6.41,3.54,8.81c2.36,2.4,5.25,3.6,8.67,3.6,2.63,0,4.91-.62,6.85-1.85Z"/>
        <path class="st9" d="M440.16,205.83c0,.93.29,1.68.86,2.27.57.58,1.33.88,2.29.88.82,0,1.58-.24,2.27-.72l.44,1.15c-.88.58-1.83.88-2.87.88-1.3,0-2.35-.4-3.16-1.21s-1.21-1.88-1.21-3.2v-26.66h1.39v26.62Z"/>
        <path class="st9" d="M466.05,192.89c1.92,1.91,2.89,4.31,2.89,7.2s-.96,5.34-2.89,7.26-4.34,2.88-7.26,2.88-5.27-.96-7.2-2.88c-1.94-1.92-2.91-4.34-2.91-7.26s.97-5.29,2.91-7.2,4.34-2.87,7.2-2.87,5.34.96,7.26,2.87ZM465.05,206.46c1.68-1.7,2.53-3.82,2.53-6.37s-.84-4.65-2.53-6.31-3.77-2.49-6.27-2.49-4.58.83-6.25,2.49c-1.67,1.66-2.51,3.76-2.51,6.31s.84,4.67,2.53,6.37,3.76,2.55,6.23,2.55,4.58-.85,6.27-2.55Z"/>
        <path class="st9" d="M492.05,209.85h-1.35v-4.78c-.69,1.62-1.76,2.88-3.2,3.8-1.45.92-3.14,1.37-5.07,1.37-2.36,0-4.26-.77-5.69-2.31-1.43-1.54-2.15-3.56-2.15-6.05v-11.46h1.39v11.34c0,2.15.6,3.89,1.79,5.21,1.19,1.33,2.76,1.99,4.7,1.99,2.47,0,4.46-.78,5.97-2.35,1.51-1.57,2.27-3.66,2.27-6.29v-9.91h1.35v19.42Z"/>
        <path class="st9" d="M518.07,209.85h-1.39v-4.86c-.82,1.67-2,2.97-3.54,3.9-1.54.93-3.25,1.39-5.13,1.39-2.76,0-5.09-.94-7-2.83s-2.87-4.32-2.87-7.32.96-5.43,2.87-7.3,4.25-2.81,7-2.81c1.88,0,3.59.46,5.13,1.39,1.54.93,2.72,2.21,3.54,3.86v-16.08h1.39v30.64ZM514.11,206.54c1.71-1.65,2.57-3.78,2.57-6.41s-.86-4.72-2.57-6.37c-1.71-1.65-3.72-2.47-6.03-2.47s-4.45.82-6.11,2.45c-1.66,1.63-2.49,3.76-2.49,6.39s.83,4.79,2.49,6.43,3.69,2.45,6.11,2.45,4.32-.82,6.03-2.47Z"/>
      </g>
      <g>
        <path class="st7" d="M525.45,216.59v5.21h-.31v-5.21h-2.18v-.27h4.69v.27h-2.19Z"/>
        <path class="st7" d="M532.64,221.8l-2.32-2.6h-1.32v2.6h-.29v-5.48h2.46c.5,0,.91.13,1.21.39.31.26.46.61.46,1.05s-.15.79-.46,1.05c-.3.26-.71.39-1.21.39h-.47l2.35,2.6h-.4ZM531.16,218.93c.41,0,.75-.11,1-.32.25-.22.38-.5.38-.85s-.13-.63-.38-.85c-.25-.21-.58-.32-1-.32h-2.17v2.34h2.17Z"/>
        <path class="st7" d="M534.15,221.8v-5.48h.29v5.48h-.29Z"/>
        <path class="st7" d="M540.39,221.8l-.71-1.55h-3.24l-.71,1.55h-.31l2.51-5.48h.26l2.51,5.48h-.31ZM538.06,216.72l-1.5,3.27h3l-1.5-3.27ZM536.95,215.73l.98-1.12h.27l.97,1.12h-.31l-.8-.91-.79.91h-.32Z"/>
        <path class="st7" d="M546.23,221.8h-.28l-3.99-4.98v4.98h-.29v-5.48h.27l3.99,4.98v-4.98h.3v5.48Z"/>
        <path class="st7" d="M553.12,219.06c0,.8-.25,1.47-.76,2.01s-1.16.82-1.96.82-1.46-.27-2-.82c-.54-.55-.81-1.22-.81-2.01s.27-1.46.81-2.01c.54-.55,1.21-.82,2-.82.59,0,1.12.14,1.56.41.45.28.77.65.97,1.12l-.27.11c-.19-.41-.48-.74-.88-.99-.4-.25-.86-.37-1.39-.37-.71,0-1.3.25-1.79.74-.48.49-.72,1.1-.72,1.81s.24,1.32.73,1.81c.49.49,1.08.74,1.79.74s1.26-.23,1.71-.69c.45-.46.69-1.03.72-1.72h-2.77v-.27h3.06v.13Z"/>
        <path class="st7" d="M558.87,219.46c0,.73-.2,1.32-.61,1.77-.41.45-.95.67-1.62.67s-1.21-.22-1.62-.67c-.41-.45-.61-1.04-.61-1.77v-3.13h.29v3.13c0,.64.18,1.16.53,1.56s.82.59,1.41.59,1.04-.2,1.4-.59.53-.91.53-1.56v-3.13h.3v3.13Z"/>
        <path class="st7" d="M564.1,221.8h-3.67v-5.48h.29v5.21h3.38v.27Z"/>
        <path class="st7" d="M569.44,217.06c.54.55.81,1.22.81,2.01s-.27,1.46-.81,2.01c-.54.55-1.2.82-1.98.82s-1.45-.27-1.99-.82-.81-1.22-.81-2.01.27-1.46.81-2.01c.54-.55,1.2-.82,1.99-.82s1.44.27,1.98.82ZM569.23,220.88c.48-.49.72-1.1.72-1.81s-.24-1.32-.72-1.81c-.48-.49-1.07-.74-1.77-.74s-1.29.25-1.77.74c-.48.49-.72,1.1-.72,1.81s.24,1.32.72,1.81c.48.49,1.07.74,1.77.74s1.29-.25,1.77-.74Z"/>
      </g>
      <g>
        <path class="st5" d="M528.91,122.86c3.24,8.38-1.59,16.46-7.69,20.04-.14.08-.27.19-.39.33-.96,1.06-.66,2.72.52,3.53h0c1.77,1.22,4.09,1.43,6.03.49,6.69-3.23,18.49-17.41,10.06-31.93-7.92-13.65-18-17.03-30.2-16.57-.97.04-1.78.08-1.78.08,0,0-10.01-10.28-25.24-3.26-13.84,6.38-14.85,19.79-14.85,19.79,0,0-1.56,1.54-2.28,2.33-3.35,3.67-5.96,7.7-7.63,11.94-4.26,10.84-.95,23.05,10.65,34.04,1.6,1.52,4.28,1.02,5.23-.96l2.92-6.07c.57-1.19.32-2.59-.59-3.56-9.71-10.26-8.78-21-1.1-29.28.3-.32.92-.95.92-.95,0,0,.17-12.15,12.29-17.18,12.26-5.09,19.28,3.62,19.28,3.62,0,0,1.51-.03,2.25-.02,9.55.22,17.97,4.21,21.6,13.59Z"/>
        <path class="st10" d="M546.69,125.04c-1.62-1.18-3.89,0-3.8,2l.23,5.22c.02.48.2.94.48,1.32,6.34,8.58,2.88,19.06-6.66,25.06-8.43,5.3-25.32,8.52-34.68,5.07-6.95-2.57-5.73-6.22-3.53-12.74,1.5-4.45,8.05-24.55,24.69-25.8,2.49-.19,3.02-3.8.64-4.57-.13-.04-.27-.08-.41-.1-1.06-.19-.82-.32-2.98-.38s-4.16.02-5.98,1.13l-24.84,16.16c-1.62.98-4.29,5.64-5.1,7.35-3.42,7.22-10.38,21.16-10.38,21.16-.6,1.25,0,2.77,1.31,3.24,5.03,1.8,11.14,2.98,18.43,3.35,12.4.62,33.11-.71,44.67-5.08,19.14-7.24,22.86-31.43,7.9-42.37Z"/>
        <path class="st6" d="M493.12,128.71c-.41.87.55,1.74,1.37,1.24l13.75-8.32c.84-.51.47-1.81-.51-1.8-1.06.01-6.11-.42-8.67-.65-.9-.08-1.75.41-2.12,1.23-1.11,2.42-3.36,7.3-3.82,8.28Z"/>
      </g>
    </g>
    <rect class="st9" x="-.49" y="305.94" width="250.25" height="194.06"/>
    <rect class="st5" x="249.75" y="305.94" width="250.25" height="194.06"/>
    <rect class="st0" x="500" y="305.94" width="250.25" height="194.06"/>
    <rect class="st8" x="750.25" y="305.94" width="250.25" height="194.06"/>
    <g>
      <path class="st5" d="M139.26,420.55c2.63,0,4.73.73,6.29,2.18,1.56,1.45,2.35,3.33,2.35,5.64s-.78,4.18-2.35,5.64c-1.56,1.45-3.66,2.18-6.29,2.18h-5.46v-15.64h5.46ZM139.26,433.92c1.87,0,3.35-.51,4.46-1.54s1.66-2.36,1.66-4.01-.55-2.99-1.66-4.01-2.59-1.54-4.46-1.54h-2.96v11.11h2.96Z"/>
      <path class="st5" d="M162.16,436.18h-2.43v-1.33c-1.06,1.1-2.46,1.66-4.2,1.66-1.57,0-2.92-.57-4.05-1.72-1.13-1.14-1.69-2.61-1.69-4.4s.57-3.24,1.7-4.39c1.14-1.15,2.48-1.73,4.04-1.73,1.74,0,3.14.55,4.2,1.66v-1.33h2.43v11.58ZM158.59,433.25c.76-.74,1.14-1.69,1.14-2.86s-.38-2.12-1.14-2.86c-.76-.74-1.65-1.11-2.66-1.11-1.09,0-1.99.36-2.71,1.09-.72.72-1.07,1.68-1.07,2.88s.36,2.16,1.07,2.88c.72.72,1.62,1.09,2.71,1.09,1.01,0,1.9-.37,2.66-1.11Z"/>
      <path class="st5" d="M169.08,442.86h-2.71l2.95-6.96-4.99-11.32h2.71l3.62,8.35,3.71-8.35h2.71l-7.99,18.28Z"/>
      <g>
        <path class="st2" d="M77.8,434.21c1.14-.72,1.95-1.7,2.45-2.93l.82.23c-.56,1.38-1.48,2.49-2.76,3.33s-2.79,1.25-4.51,1.25c-2.24,0-4.14-.78-5.69-2.34s-2.33-3.47-2.33-5.73.78-4.17,2.33-5.73c1.56-1.56,3.45-2.34,5.69-2.34,1.71,0,3.21.41,4.5,1.24s2.22,1.92,2.78,3.29l-.79.28c-.5-1.23-1.32-2.2-2.46-2.93-1.14-.72-2.48-1.08-4.02-1.08-2.01,0-3.7.7-5.09,2.11-1.38,1.41-2.08,3.13-2.08,5.17s.69,3.76,2.08,5.17c1.38,1.41,3.08,2.11,5.09,2.11,1.54,0,2.88-.36,4.01-1.08Z"/>
        <path class="st2" d="M85.55,433.48c0,.54.17.99.5,1.33.33.34.78.51,1.34.51.48,0,.92-.14,1.33-.42l.26.68c-.51.34-1.07.51-1.68.51-.76,0-1.38-.24-1.85-.71-.47-.47-.71-1.1-.71-1.88v-15.63h.82v15.61Z"/>
        <path class="st2" d="M100.73,425.89c1.13,1.12,1.69,2.53,1.69,4.22s-.56,3.13-1.69,4.26c-1.13,1.13-2.55,1.69-4.26,1.69s-3.09-.56-4.22-1.69c-1.13-1.13-1.7-2.55-1.7-4.26s.57-3.1,1.7-4.22c1.14-1.12,2.54-1.68,4.22-1.68s3.13.56,4.26,1.68ZM100.15,433.85c.99-1,1.48-2.24,1.48-3.73s-.49-2.73-1.48-3.7c-.99-.97-2.21-1.46-3.67-1.46s-2.68.49-3.66,1.46c-.98.97-1.47,2.21-1.47,3.7s.49,2.74,1.48,3.73c.99,1,2.2,1.49,3.65,1.49s2.69-.5,3.67-1.49Z"/>
        <path class="st2" d="M115.98,435.83h-.79v-2.8c-.4.95-1.03,1.69-1.88,2.23-.85.54-1.84.8-2.97.8-1.38,0-2.5-.45-3.34-1.35-.84-.9-1.26-2.08-1.26-3.55v-6.72h.82v6.65c0,1.26.35,2.28,1.05,3.06.7.78,1.62,1.17,2.75,1.17,1.45,0,2.61-.46,3.5-1.38s1.33-2.15,1.33-3.69v-5.81h.79v11.38Z"/>
        <path class="st2" d="M131.24,435.83h-.82v-2.85c-.48.98-1.17,1.74-2.08,2.29-.9.54-1.91.82-3.01.82-1.62,0-2.99-.55-4.11-1.66-1.12-1.1-1.68-2.54-1.68-4.29s.56-3.18,1.68-4.28c1.12-1.1,2.49-1.64,4.11-1.64,1.1,0,2.11.27,3.01.82.9.54,1.59,1.3,2.08,2.26v-9.43h.82v17.96ZM128.92,433.9c1-.96,1.5-2.22,1.5-3.76s-.5-2.77-1.5-3.73c-1-.96-2.18-1.45-3.53-1.45s-2.61.48-3.58,1.43c-.97.96-1.46,2.21-1.46,3.75s.49,2.81,1.46,3.77c.97.96,2.17,1.44,3.58,1.44s2.53-.48,3.53-1.45Z"/>
      </g>
      <g>
        <path class="st2" d="M135.57,439.79v3.05h-.18v-3.05h-1.28v-.16h2.75v.16h-1.28Z"/>
        <path class="st2" d="M139.78,442.84l-1.36-1.52h-.77v1.52h-.17v-3.21h1.44c.29,0,.53.08.71.23.18.15.27.36.27.61s-.09.46-.27.61c-.18.15-.42.23-.71.23h-.28l1.38,1.52h-.24ZM138.92,441.16c.24,0,.44-.06.58-.19.15-.13.22-.29.22-.5s-.07-.37-.22-.5c-.15-.13-.34-.19-.58-.19h-1.27v1.37h1.27Z"/>
        <path class="st2" d="M140.67,442.84v-3.21h.17v3.21h-.17Z"/>
        <path class="st2" d="M144.33,442.84l-.42-.91h-1.9l-.42.91h-.18l1.47-3.21h.15l1.47,3.21h-.18ZM142.96,439.86l-.88,1.92h1.76l-.88-1.92ZM142.31,439.29l.58-.66h.16l.57.66h-.18l-.47-.53-.46.53h-.19Z"/>
        <path class="st2" d="M147.75,442.84h-.16l-2.34-2.92v2.92h-.17v-3.21h.16l2.34,2.92v-2.92h.18v3.21Z"/>
        <path class="st2" d="M151.79,441.24c0,.47-.15.86-.45,1.18s-.68.48-1.15.48-.85-.16-1.17-.48c-.32-.32-.48-.71-.48-1.18s.16-.86.48-1.18c.32-.32.71-.48,1.17-.48.35,0,.65.08.92.24.26.16.45.38.57.65l-.16.06c-.11-.24-.28-.44-.51-.58-.23-.14-.5-.22-.81-.22-.42,0-.76.14-1.05.43-.28.29-.42.64-.42,1.06s.14.77.43,1.06.63.43,1.05.43.74-.13,1-.41c.26-.27.4-.61.42-1.01h-1.62v-.16h1.79v.08Z"/>
        <path class="st2" d="M155.16,441.47c0,.43-.12.77-.36,1.03-.24.26-.56.39-.95.39s-.71-.13-.95-.39c-.24-.26-.36-.61-.36-1.03v-1.83h.17v1.83c0,.38.1.68.31.91s.48.35.82.35.61-.12.82-.34c.21-.23.31-.54.31-.92v-1.83h.18v1.83Z"/>
        <path class="st2" d="M158.24,442.84h-2.15v-3.21h.17v3.05h1.98v.16Z"/>
        <path class="st2" d="M161.36,440.06c.32.32.47.71.47,1.18s-.16.86-.47,1.18c-.32.32-.7.48-1.16.48s-.85-.16-1.16-.48c-.32-.32-.47-.71-.47-1.18s.16-.86.47-1.18c.32-.32.7-.48,1.16-.48s.84.16,1.16.48ZM161.24,442.3c.28-.29.42-.64.42-1.06s-.14-.77-.42-1.06c-.28-.29-.63-.43-1.03-.43s-.76.14-1.04.43-.42.64-.42,1.06.14.77.42,1.06.63.43,1.04.43.75-.14,1.03-.43Z"/>
      </g>
      <path class="st5" d="M137.6,384.82c1.9,4.92-.93,9.66-4.51,11.75-.08.05-.16.11-.23.19-.56.62-.39,1.59.31,2.07h0c1.04.71,2.4.84,3.54.29,3.92-1.9,10.84-10.21,5.9-18.73-4.64-8.01-10.55-9.99-17.71-9.72-.57.02-1.05.04-1.05.04,0,0-5.87-6.03-14.8-1.91-8.12,3.74-8.71,11.61-8.71,11.61,0,0-.91.9-1.34,1.37-1.96,2.15-3.5,4.52-4.47,7-2.5,6.36-.56,13.52,6.25,19.97.94.89,2.51.6,3.07-.56l1.71-3.56c.34-.7.19-1.52-.35-2.09-5.69-6.02-5.15-12.31-.64-17.17.17-.19.54-.56.54-.56,0,0,.1-7.13,7.21-10.08,7.19-2.99,11.31,2.12,11.31,2.12,0,0,.88-.02,1.32,0,5.6.13,10.54,2.47,12.67,7.97Z"/>
      <path class="st10" d="M148.03,386.1c-.95-.69-2.28,0-2.23,1.17l.14,3.06c.01.28.12.55.28.78,3.72,5.03,1.69,11.18-3.91,14.7-4.95,3.11-14.85,5-20.34,2.97-4.08-1.51-3.36-3.65-2.07-7.47.88-2.61,4.72-14.4,14.48-15.13,1.46-.11,1.77-2.23.38-2.68-.08-.03-.16-.05-.24-.06-.62-.11-.48-.19-1.75-.23s-2.44.01-3.5.66l-14.57,9.48c-.95.58-2.52,3.31-2.99,4.31-2.01,4.24-6.09,12.41-6.09,12.41-.35.74,0,1.63.77,1.9,2.95,1.06,6.53,1.75,10.81,1.96,7.27.36,19.42-.42,26.2-2.98,11.23-4.24,13.41-18.43,4.63-24.85Z"/>
      <path class="st6" d="M116.61,388.24c-.24.51.33,1.02.8.73l8.06-4.88c.49-.3.28-1.06-.3-1.06-.62,0-3.58-.25-5.08-.38-.53-.05-1.02.24-1.25.72-.65,1.42-1.97,4.28-2.24,4.86Z"/>
    </g>
    <g>
      <path class="st2" d="M386.87,420.55c2.63,0,4.73.73,6.29,2.18,1.56,1.45,2.35,3.33,2.35,5.64s-.78,4.18-2.35,5.64c-1.56,1.45-3.66,2.18-6.29,2.18h-5.46v-15.64h5.46ZM386.87,433.92c1.87,0,3.35-.51,4.46-1.54s1.66-2.36,1.66-4.01-.55-2.99-1.66-4.01-2.59-1.54-4.46-1.54h-2.96v11.11h2.96Z"/>
      <path class="st2" d="M409.77,436.18h-2.43v-1.33c-1.06,1.1-2.46,1.66-4.2,1.66-1.57,0-2.92-.57-4.05-1.72-1.13-1.14-1.69-2.61-1.69-4.4s.57-3.24,1.7-4.39c1.14-1.15,2.48-1.73,4.04-1.73,1.74,0,3.14.55,4.2,1.66v-1.33h2.43v11.58ZM406.2,433.25c.76-.74,1.14-1.69,1.14-2.86s-.38-2.12-1.14-2.86c-.76-.74-1.65-1.11-2.66-1.11-1.09,0-1.99.36-2.71,1.09-.72.72-1.07,1.68-1.07,2.88s.36,2.16,1.07,2.88c.72.72,1.62,1.09,2.71,1.09,1.01,0,1.9-.37,2.66-1.11Z"/>
      <path class="st2" d="M416.69,442.86h-2.71l2.95-6.96-4.99-11.32h2.71l3.62,8.35,3.71-8.35h2.71l-7.99,18.28Z"/>
      <g>
        <path class="st9" d="M325.41,434.21c1.14-.72,1.95-1.7,2.45-2.93l.82.23c-.56,1.38-1.48,2.49-2.76,3.33s-2.79,1.25-4.51,1.25c-2.24,0-4.14-.78-5.69-2.34s-2.33-3.47-2.33-5.73.78-4.17,2.33-5.73c1.56-1.56,3.45-2.34,5.69-2.34,1.71,0,3.21.41,4.5,1.24s2.22,1.92,2.78,3.29l-.79.28c-.5-1.23-1.32-2.2-2.46-2.93-1.14-.72-2.48-1.08-4.02-1.08-2.01,0-3.7.7-5.09,2.11-1.38,1.41-2.08,3.13-2.08,5.17s.69,3.76,2.08,5.17c1.38,1.41,3.08,2.11,5.09,2.11,1.54,0,2.88-.36,4.01-1.08Z"/>
        <path class="st9" d="M333.16,433.48c0,.54.17.99.5,1.33.33.34.78.51,1.34.51.48,0,.92-.14,1.33-.42l.26.68c-.51.34-1.07.51-1.68.51-.76,0-1.38-.24-1.85-.71-.47-.47-.71-1.1-.71-1.88v-15.63h.82v15.61Z"/>
        <path class="st9" d="M348.34,425.89c1.13,1.12,1.69,2.53,1.69,4.22s-.56,3.13-1.69,4.26c-1.13,1.13-2.55,1.69-4.26,1.69s-3.09-.56-4.22-1.69c-1.13-1.13-1.7-2.55-1.7-4.26s.57-3.1,1.7-4.22c1.14-1.12,2.54-1.68,4.22-1.68s3.13.56,4.26,1.68ZM347.75,433.85c.99-1,1.48-2.24,1.48-3.73s-.49-2.73-1.48-3.7c-.99-.97-2.21-1.46-3.67-1.46s-2.68.49-3.66,1.46c-.98.97-1.47,2.21-1.47,3.7s.49,2.74,1.48,3.73c.99,1,2.2,1.49,3.65,1.49s2.69-.5,3.67-1.49Z"/>
        <path class="st9" d="M363.59,435.83h-.79v-2.8c-.4.95-1.03,1.69-1.88,2.23-.85.54-1.84.8-2.97.8-1.38,0-2.5-.45-3.34-1.35-.84-.9-1.26-2.08-1.26-3.55v-6.72h.82v6.65c0,1.26.35,2.28,1.05,3.06.7.78,1.62,1.17,2.75,1.17,1.45,0,2.61-.46,3.5-1.38s1.33-2.15,1.33-3.69v-5.81h.79v11.38Z"/>
        <path class="st9" d="M378.85,435.83h-.82v-2.85c-.48.98-1.17,1.74-2.08,2.29-.9.54-1.91.82-3.01.82-1.62,0-2.99-.55-4.11-1.66-1.12-1.1-1.68-2.54-1.68-4.29s.56-3.18,1.68-4.28c1.12-1.1,2.49-1.64,4.11-1.64,1.1,0,2.11.27,3.01.82.9.54,1.59,1.3,2.08,2.26v-9.43h.82v17.96ZM376.53,433.9c1-.96,1.5-2.22,1.5-3.76s-.5-2.77-1.5-3.73c-1-.96-2.18-1.45-3.53-1.45s-2.61.48-3.58,1.43c-.97.96-1.46,2.21-1.46,3.75s.49,2.81,1.46,3.77c.97.96,2.17,1.44,3.58,1.44s2.53-.48,3.53-1.45Z"/>
      </g>
      <g>
        <path class="st7" d="M383.18,439.79v3.05h-.18v-3.05h-1.28v-.16h2.75v.16h-1.28Z"/>
        <path class="st7" d="M387.39,442.84l-1.36-1.52h-.77v1.52h-.17v-3.21h1.44c.29,0,.53.08.71.23.18.15.27.36.27.61s-.09.46-.27.61c-.18.15-.42.23-.71.23h-.28l1.38,1.52h-.24ZM386.53,441.16c.24,0,.44-.06.58-.19.15-.13.22-.29.22-.5s-.07-.37-.22-.5c-.15-.13-.34-.19-.58-.19h-1.27v1.37h1.27Z"/>
        <path class="st7" d="M388.28,442.84v-3.21h.17v3.21h-.17Z"/>
        <path class="st7" d="M391.94,442.84l-.42-.91h-1.9l-.42.91h-.18l1.47-3.21h.15l1.47,3.21h-.18ZM390.57,439.86l-.88,1.92h1.76l-.88-1.92ZM389.92,439.29l.58-.66h.16l.57.66h-.18l-.47-.53-.46.53h-.19Z"/>
        <path class="st7" d="M395.36,442.84h-.16l-2.34-2.92v2.92h-.17v-3.21h.16l2.34,2.92v-2.92h.18v3.21Z"/>
        <path class="st7" d="M399.4,441.24c0,.47-.15.86-.45,1.18s-.68.48-1.15.48-.85-.16-1.17-.48c-.32-.32-.48-.71-.48-1.18s.16-.86.48-1.18c.32-.32.71-.48,1.17-.48.35,0,.65.08.92.24.26.16.45.38.57.65l-.16.06c-.11-.24-.28-.44-.51-.58-.23-.14-.5-.22-.81-.22-.42,0-.76.14-1.05.43-.28.29-.42.64-.42,1.06s.14.77.43,1.06.63.43,1.05.43.74-.13,1-.41c.26-.27.4-.61.42-1.01h-1.62v-.16h1.79v.08Z"/>
        <path class="st7" d="M402.77,441.47c0,.43-.12.77-.36,1.03-.24.26-.56.39-.95.39s-.71-.13-.95-.39c-.24-.26-.36-.61-.36-1.03v-1.83h.17v1.83c0,.38.1.68.31.91s.48.35.82.35.61-.12.82-.34c.21-.23.31-.54.31-.92v-1.83h.18v1.83Z"/>
        <path class="st7" d="M405.85,442.84h-2.15v-3.21h.17v3.05h1.98v.16Z"/>
        <path class="st7" d="M408.98,440.06c.32.32.47.71.47,1.18s-.16.86-.47,1.18c-.32.32-.7.48-1.16.48s-.85-.16-1.16-.48c-.32-.32-.47-.71-.47-1.18s.16-.86.47-1.18c.32-.32.7-.48,1.16-.48s.84.16,1.16.48ZM408.85,442.3c.28-.29.42-.64.42-1.06s-.14-.77-.42-1.06c-.28-.29-.63-.43-1.04-.43s-.76.14-1.04.43-.42.64-.42,1.06.14.77.42,1.06.63.43,1.04.43.75-.14,1.04-.43Z"/>
      </g>
      <path class="st2" d="M385.21,384.82c1.9,4.92-.93,9.66-4.51,11.75-.08.05-.16.11-.23.19-.56.62-.39,1.59.31,2.07h0c1.04.71,2.4.84,3.54.29,3.92-1.9,10.84-10.21,5.9-18.73-4.64-8.01-10.55-9.99-17.71-9.72-.57.02-1.05.04-1.05.04,0,0-5.87-6.03-14.8-1.91-8.12,3.74-8.71,11.61-8.71,11.61,0,0-.91.9-1.34,1.37-1.96,2.15-3.5,4.52-4.47,7-2.5,6.36-.56,13.52,6.25,19.97.94.89,2.51.6,3.07-.56l1.71-3.56c.34-.7.19-1.52-.35-2.09-5.69-6.02-5.15-12.31-.64-17.17.17-.19.54-.56.54-.56,0,0,.1-7.13,7.21-10.08s11.31,2.12,11.31,2.12c0,0,.88-.02,1.32,0,5.6.13,10.54,2.47,12.67,7.97Z"/>
      <path class="st10" d="M395.64,386.1c-.95-.69-2.28,0-2.23,1.17l.14,3.06c.01.28.12.55.28.78,3.72,5.03,1.69,11.18-3.91,14.7-4.95,3.11-14.85,5-20.34,2.97-4.08-1.51-3.36-3.65-2.07-7.47.88-2.61,4.72-14.4,14.48-15.13,1.46-.11,1.77-2.23.38-2.68-.08-.03-.16-.05-.24-.06-.62-.11-.48-.19-1.75-.23s-2.44.01-3.5.66l-14.57,9.48c-.95.58-2.52,3.31-2.99,4.31-2.01,4.24-6.09,12.41-6.09,12.41-.35.74,0,1.63.77,1.9,2.95,1.06,6.53,1.75,10.81,1.96,7.27.36,19.42-.42,26.2-2.98,11.23-4.24,13.41-18.43,4.63-24.85Z"/>
      <path class="st6" d="M364.22,388.24c-.24.51.33,1.02.8.73l8.06-4.88c.49-.3.28-1.06-.3-1.06-.62,0-3.58-.25-5.08-.38-.53-.05-1.02.24-1.25.72-.65,1.42-1.97,4.28-2.24,4.86Z"/>
    </g>
    <g>
      <path class="st1" d="M637.07,420.55c2.63,0,4.73.73,6.29,2.18,1.56,1.45,2.35,3.33,2.35,5.64s-.78,4.18-2.35,5.64c-1.56,1.45-3.66,2.18-6.29,2.18h-5.46v-15.64h5.46ZM637.07,433.92c1.87,0,3.35-.51,4.46-1.54s1.66-2.36,1.66-4.01-.55-2.99-1.66-4.01-2.59-1.54-4.46-1.54h-2.96v11.11h2.96Z"/>
      <path class="st1" d="M659.96,436.18h-2.43v-1.33c-1.06,1.1-2.46,1.66-4.2,1.66-1.57,0-2.92-.57-4.05-1.72-1.13-1.14-1.69-2.61-1.69-4.4s.57-3.24,1.7-4.39c1.14-1.15,2.48-1.73,4.04-1.73,1.74,0,3.14.55,4.2,1.66v-1.33h2.43v11.58ZM656.39,433.25c.76-.74,1.14-1.69,1.14-2.86s-.38-2.12-1.14-2.86c-.76-.74-1.65-1.11-2.66-1.11-1.09,0-1.99.36-2.71,1.09-.72.72-1.07,1.68-1.07,2.88s.36,2.16,1.07,2.88c.72.72,1.62,1.09,2.71,1.09,1.01,0,1.9-.37,2.66-1.11Z"/>
      <path class="st1" d="M666.88,442.86h-2.71l2.95-6.96-4.99-11.32h2.71l3.62,8.35,3.71-8.35h2.71l-7.99,18.28Z"/>
      <g>
        <path class="st3" d="M575.6,434.21c1.14-.72,1.95-1.7,2.45-2.93l.82.23c-.56,1.38-1.48,2.49-2.76,3.33s-2.79,1.25-4.51,1.25c-2.24,0-4.14-.78-5.69-2.34s-2.33-3.47-2.33-5.73.78-4.17,2.33-5.73c1.56-1.56,3.45-2.34,5.69-2.34,1.71,0,3.21.41,4.5,1.24s2.22,1.92,2.78,3.29l-.79.28c-.5-1.23-1.32-2.2-2.46-2.93-1.14-.72-2.48-1.08-4.02-1.08-2.01,0-3.7.7-5.09,2.11-1.38,1.41-2.08,3.13-2.08,5.17s.69,3.76,2.08,5.17c1.38,1.41,3.08,2.11,5.09,2.11,1.54,0,2.88-.36,4.01-1.08Z"/>
        <path class="st3" d="M583.35,433.48c0,.54.17.99.5,1.33.33.34.78.51,1.34.51.48,0,.92-.14,1.33-.42l.26.68c-.51.34-1.07.51-1.68.51-.76,0-1.38-.24-1.85-.71-.47-.47-.71-1.1-.71-1.88v-15.63h.82v15.61Z"/>
        <path class="st3" d="M598.53,425.89c1.13,1.12,1.69,2.53,1.69,4.22s-.56,3.13-1.69,4.26c-1.13,1.13-2.55,1.69-4.26,1.69s-3.09-.56-4.22-1.69c-1.13-1.13-1.7-2.55-1.7-4.26s.57-3.1,1.7-4.22c1.14-1.12,2.54-1.68,4.22-1.68s3.13.56,4.26,1.68ZM597.95,433.85c.99-1,1.48-2.24,1.48-3.73s-.49-2.73-1.48-3.7c-.99-.97-2.21-1.46-3.67-1.46s-2.68.49-3.66,1.46c-.98.97-1.47,2.21-1.47,3.7s.49,2.74,1.48,3.73c.99,1,2.2,1.49,3.65,1.49s2.69-.5,3.67-1.49Z"/>
        <path class="st3" d="M613.78,435.83h-.79v-2.8c-.4.95-1.03,1.69-1.88,2.23-.85.54-1.84.8-2.97.8-1.38,0-2.5-.45-3.34-1.35-.84-.9-1.26-2.08-1.26-3.55v-6.72h.82v6.65c0,1.26.35,2.28,1.05,3.06.7.78,1.62,1.17,2.75,1.17,1.45,0,2.61-.46,3.5-1.38s1.33-2.15,1.33-3.69v-5.81h.79v11.38Z"/>
        <path class="st3" d="M629.05,435.83h-.82v-2.85c-.48.98-1.17,1.74-2.08,2.29-.9.54-1.91.82-3.01.82-1.62,0-2.99-.55-4.11-1.66-1.12-1.1-1.68-2.54-1.68-4.29s.56-3.18,1.68-4.28c1.12-1.1,2.49-1.64,4.11-1.64,1.1,0,2.11.27,3.01.82.9.54,1.59,1.3,2.08,2.26v-9.43h.82v17.96ZM626.72,433.9c1-.96,1.5-2.22,1.5-3.76s-.5-2.77-1.5-3.73c-1-.96-2.18-1.45-3.53-1.45s-2.61.48-3.58,1.43c-.97.96-1.46,2.21-1.46,3.75s.49,2.81,1.46,3.77c.97.96,2.17,1.44,3.58,1.44s2.53-.48,3.53-1.45Z"/>
      </g>
      <g>
        <path class="st3" d="M633.37,439.79v3.05h-.18v-3.05h-1.28v-.16h2.75v.16h-1.28Z"/>
        <path class="st3" d="M637.59,442.84l-1.36-1.52h-.77v1.52h-.17v-3.21h1.44c.29,0,.53.08.71.23.18.15.27.36.27.61s-.09.46-.27.61c-.18.15-.42.23-.71.23h-.28l1.38,1.52h-.24ZM636.72,441.16c.24,0,.44-.06.58-.19.15-.13.22-.29.22-.5s-.07-.37-.22-.5c-.15-.13-.34-.19-.58-.19h-1.27v1.37h1.27Z"/>
        <path class="st3" d="M638.48,442.84v-3.21h.17v3.21h-.17Z"/>
        <path class="st3" d="M642.13,442.84l-.42-.91h-1.9l-.42.91h-.18l1.47-3.21h.15l1.47,3.21h-.18ZM640.77,439.86l-.88,1.92h1.76l-.88-1.92ZM640.12,439.29l.58-.66h.16l.57.66h-.18l-.47-.53-.46.53h-.19Z"/>
        <path class="st3" d="M645.56,442.84h-.16l-2.34-2.92v2.92h-.17v-3.21h.16l2.34,2.92v-2.92h.18v3.21Z"/>
        <path class="st3" d="M649.6,441.24c0,.47-.15.86-.45,1.18s-.68.48-1.15.48-.85-.16-1.17-.48c-.32-.32-.48-.71-.48-1.18s.16-.86.48-1.18c.32-.32.71-.48,1.17-.48.35,0,.65.08.92.24.26.16.45.38.57.65l-.16.06c-.11-.24-.28-.44-.51-.58-.23-.14-.5-.22-.81-.22-.42,0-.76.14-1.05.43-.28.29-.42.64-.42,1.06s.14.77.43,1.06.63.43,1.05.43.74-.13,1-.41c.26-.27.4-.61.42-1.01h-1.62v-.16h1.79v.08Z"/>
        <path class="st3" d="M652.97,441.47c0,.43-.12.77-.36,1.03-.24.26-.56.39-.95.39s-.71-.13-.95-.39c-.24-.26-.36-.61-.36-1.03v-1.83h.17v1.83c0,.38.1.68.31.91s.48.35.82.35.61-.12.82-.34c.21-.23.31-.54.31-.92v-1.83h.18v1.83Z"/>
        <path class="st3" d="M656.04,442.84h-2.15v-3.21h.17v3.05h1.98v.16Z"/>
        <path class="st3" d="M659.17,440.06c.32.32.47.71.47,1.18s-.16.86-.47,1.18c-.32.32-.7.48-1.16.48s-.85-.16-1.16-.48c-.32-.32-.47-.71-.47-1.18s.16-.86.47-1.18c.32-.32.7-.48,1.16-.48s.84.16,1.16.48ZM659.05,442.3c.28-.29.42-.64.42-1.06s-.14-.77-.42-1.06c-.28-.29-.63-.43-1.04-.43s-.76.14-1.04.43-.42.64-.42,1.06.14.77.42,1.06.63.43,1.04.43.75-.14,1.04-.43Z"/>
      </g>
      <path class="st1" d="M635.4,384.82c1.9,4.92-.93,9.66-4.51,11.75-.08.05-.16.11-.23.19-.56.62-.39,1.59.31,2.07h0c1.04.71,2.4.84,3.54.29,3.92-1.9,10.84-10.21,5.9-18.73-4.64-8.01-10.55-9.99-17.71-9.72-.57.02-1.05.04-1.05.04,0,0-5.87-6.03-14.8-1.91-8.12,3.74-8.71,11.61-8.71,11.61,0,0-.91.9-1.34,1.37-1.96,2.15-3.5,4.52-4.47,7-2.5,6.36-.56,13.52,6.25,19.97.94.89,2.51.6,3.07-.56l1.71-3.56c.34-.7.19-1.52-.35-2.09-5.69-6.02-5.15-12.31-.64-17.17.17-.19.54-.56.54-.56,0,0,.1-7.13,7.21-10.08,7.19-2.99,11.31,2.12,11.31,2.12,0,0,.88-.02,1.32,0,5.6.13,10.54,2.47,12.67,7.97Z"/>
      <path class="st4" d="M645.83,386.1c-.95-.69-2.28,0-2.23,1.17l.14,3.06c.01.28.12.55.28.78,3.72,5.03,1.69,11.18-3.91,14.7-4.95,3.11-14.85,5-20.34,2.97-4.08-1.51-3.36-3.65-2.07-7.47.88-2.61,4.72-14.4,14.48-15.13,1.46-.11,1.77-2.23.38-2.68-.08-.03-.16-.05-.24-.06-.62-.11-.48-.19-1.75-.23s-2.44.01-3.5.66l-14.57,9.48c-.95.58-2.52,3.31-2.99,4.31-2.01,4.24-6.09,12.41-6.09,12.41-.35.74,0,1.63.77,1.9,2.95,1.06,6.53,1.75,10.81,1.96,7.27.36,19.42-.42,26.2-2.98,11.23-4.24,13.41-18.43,4.63-24.85Z"/>
      <path class="st3" d="M614.42,388.24c-.24.51.33,1.02.8.73l8.06-4.88c.49-.3.28-1.06-.3-1.06-.62,0-3.58-.25-5.08-.38-.53-.05-1.02.24-1.25.72-.65,1.42-1.97,4.28-2.24,4.86Z"/>
    </g>
    <g>
      <g>
        <path class="st2" d="M908.67,420.55c2.63,0,4.73.73,6.29,2.18,1.56,1.45,2.35,3.33,2.35,5.64s-.78,4.18-2.35,5.64c-1.56,1.45-3.66,2.18-6.29,2.18h-5.46v-15.64h5.46ZM908.67,433.92c1.87,0,3.35-.51,4.46-1.54s1.66-2.36,1.66-4.01-.55-2.99-1.66-4.01-2.59-1.54-4.46-1.54h-2.96v11.11h2.96Z"/>
        <path class="st2" d="M931.57,436.18h-2.43v-1.33c-1.06,1.1-2.46,1.66-4.2,1.66-1.57,0-2.92-.57-4.05-1.72-1.13-1.14-1.69-2.61-1.69-4.4s.57-3.24,1.7-4.39c1.14-1.15,2.48-1.73,4.04-1.73,1.74,0,3.14.55,4.2,1.66v-1.33h2.43v11.58ZM928,433.25c.76-.74,1.14-1.69,1.14-2.86s-.38-2.12-1.14-2.86c-.76-.74-1.65-1.11-2.66-1.11-1.09,0-1.99.36-2.71,1.09-.72.72-1.07,1.68-1.07,2.88s.36,2.16,1.07,2.88c.72.72,1.62,1.09,2.71,1.09,1.01,0,1.9-.37,2.66-1.11Z"/>
        <path class="st2" d="M938.49,442.86h-2.71l2.95-6.96-4.99-11.32h2.71l3.62,8.35,3.71-8.35h2.71l-7.99,18.28Z"/>
      </g>
      <g>
        <path class="st2" d="M847.21,434.21c1.14-.72,1.95-1.7,2.45-2.93l.82.23c-.56,1.38-1.48,2.49-2.76,3.33s-2.79,1.25-4.51,1.25c-2.24,0-4.14-.78-5.69-2.34s-2.33-3.47-2.33-5.73.78-4.17,2.33-5.73c1.56-1.56,3.45-2.34,5.69-2.34,1.71,0,3.21.41,4.5,1.24s2.22,1.92,2.78,3.29l-.79.28c-.5-1.23-1.32-2.2-2.46-2.93-1.14-.72-2.48-1.08-4.02-1.08-2.01,0-3.7.7-5.09,2.11-1.38,1.41-2.08,3.13-2.08,5.17s.69,3.76,2.08,5.17c1.38,1.41,3.08,2.11,5.09,2.11,1.54,0,2.88-.36,4.01-1.08Z"/>
        <path class="st2" d="M854.96,433.48c0,.54.17.99.5,1.33.33.34.78.51,1.34.51.48,0,.92-.14,1.33-.42l.26.68c-.51.34-1.07.51-1.68.51-.76,0-1.38-.24-1.85-.71-.47-.47-.71-1.1-.71-1.88v-15.63h.82v15.61Z"/>
        <path class="st2" d="M870.14,425.89c1.13,1.12,1.69,2.53,1.69,4.22s-.56,3.13-1.69,4.26c-1.13,1.13-2.55,1.69-4.26,1.69s-3.09-.56-4.22-1.69c-1.13-1.13-1.7-2.55-1.7-4.26s.57-3.1,1.7-4.22c1.14-1.12,2.54-1.68,4.22-1.68s3.13.56,4.26,1.68ZM869.55,433.85c.99-1,1.48-2.24,1.48-3.73s-.49-2.73-1.48-3.7c-.99-.97-2.21-1.46-3.67-1.46s-2.68.49-3.66,1.46c-.98.97-1.47,2.21-1.47,3.7s.49,2.74,1.48,3.73c.99,1,2.2,1.49,3.65,1.49s2.69-.5,3.67-1.49Z"/>
        <path class="st2" d="M885.39,435.83h-.79v-2.8c-.4.95-1.03,1.69-1.88,2.23-.85.54-1.84.8-2.97.8-1.38,0-2.5-.45-3.34-1.35-.84-.9-1.26-2.08-1.26-3.55v-6.72h.82v6.65c0,1.26.35,2.28,1.05,3.06.7.78,1.62,1.17,2.75,1.17,1.45,0,2.61-.46,3.5-1.38s1.33-2.15,1.33-3.69v-5.81h.79v11.38Z"/>
        <path class="st2" d="M900.65,435.83h-.82v-2.85c-.48.98-1.17,1.74-2.08,2.29-.9.54-1.91.82-3.01.82-1.62,0-2.99-.55-4.11-1.66-1.12-1.1-1.68-2.54-1.68-4.29s.56-3.18,1.68-4.28c1.12-1.1,2.49-1.64,4.11-1.64,1.1,0,2.11.27,3.01.82.9.54,1.59,1.3,2.08,2.26v-9.43h.82v17.96ZM898.33,433.9c1-.96,1.5-2.22,1.5-3.76s-.5-2.77-1.5-3.73c-1-.96-2.18-1.45-3.53-1.45s-2.61.48-3.58,1.43c-.97.96-1.46,2.21-1.46,3.75s.49,2.81,1.46,3.77c.97.96,2.17,1.44,3.58,1.44s2.53-.48,3.53-1.45Z"/>
      </g>
      <g>
        <path class="st2" d="M904.98,439.79v3.05h-.18v-3.05h-1.28v-.16h2.75v.16h-1.28Z"/>
        <path class="st2" d="M909.19,442.84l-1.36-1.52h-.77v1.52h-.17v-3.21h1.44c.29,0,.53.08.71.23.18.15.27.36.27.61s-.09.46-.27.61c-.18.15-.42.23-.71.23h-.28l1.38,1.52h-.24ZM908.33,441.16c.24,0,.44-.06.58-.19.15-.13.22-.29.22-.5s-.07-.37-.22-.5c-.15-.13-.34-.19-.58-.19h-1.27v1.37h1.27Z"/>
        <path class="st2" d="M910.08,442.84v-3.21h.17v3.21h-.17Z"/>
        <path class="st2" d="M913.74,442.84l-.42-.91h-1.9l-.42.91h-.18l1.47-3.21h.15l1.47,3.21h-.18ZM912.37,439.86l-.88,1.92h1.76l-.88-1.92ZM911.72,439.29l.58-.66h.16l.57.66h-.18l-.47-.53-.46.53h-.19Z"/>
        <path class="st2" d="M917.16,442.84h-.16l-2.34-2.92v2.92h-.17v-3.21h.16l2.34,2.92v-2.92h.18v3.21Z"/>
        <path class="st2" d="M921.2,441.24c0,.47-.15.86-.45,1.18s-.68.48-1.15.48-.85-.16-1.17-.48c-.32-.32-.48-.71-.48-1.18s.16-.86.48-1.18c.32-.32.71-.48,1.17-.48.35,0,.65.08.92.24.26.16.45.38.57.65l-.16.06c-.11-.24-.28-.44-.51-.58-.23-.14-.5-.22-.81-.22-.42,0-.76.14-1.05.43-.28.29-.42.64-.42,1.06s.14.77.43,1.06.63.43,1.05.43.74-.13,1-.41c.26-.27.4-.61.42-1.01h-1.62v-.16h1.79v.08Z"/>
        <path class="st2" d="M924.57,441.47c0,.43-.12.77-.36,1.03-.24.26-.56.39-.95.39s-.71-.13-.95-.39c-.24-.26-.36-.61-.36-1.03v-1.83h.17v1.83c0,.38.1.68.31.91s.48.35.82.35.61-.12.82-.34c.21-.23.31-.54.31-.92v-1.83h.18v1.83Z"/>
        <path class="st2" d="M927.65,442.84h-2.15v-3.21h.17v3.05h1.98v.16Z"/>
        <path class="st2" d="M930.77,440.06c.32.32.47.71.47,1.18s-.16.86-.47,1.18c-.32.32-.7.48-1.16.48s-.85-.16-1.16-.48c-.32-.32-.47-.71-.47-1.18s.16-.86.47-1.18c.32-.32.7-.48,1.16-.48s.84.16,1.16.48ZM930.65,442.3c.28-.29.42-.64.42-1.06s-.14-.77-.42-1.06c-.28-.29-.63-.43-1.04-.43s-.76.14-1.04.43-.42.64-.42,1.06.14.77.42,1.06.63.43,1.04.43.75-.14,1.04-.43Z"/>
      </g>
      <g>
        <path class="st2" d="M907.01,384.82c1.9,4.92-.93,9.66-4.51,11.75-.08.05-.16.11-.23.19-.56.62-.39,1.59.31,2.07h0c1.04.71,2.4.84,3.54.29,3.92-1.9,10.84-10.21,5.9-18.73-4.64-8.01-10.55-9.99-17.71-9.72-.57.02-1.05.04-1.05.04,0,0-5.87-6.03-14.8-1.91-8.12,3.74-8.71,11.61-8.71,11.61,0,0-.91.9-1.34,1.37-1.96,2.15-3.5,4.52-4.47,7-2.5,6.36-.56,13.52,6.25,19.97.94.89,2.51.6,3.07-.56l1.71-3.56c.34-.7.19-1.52-.35-2.09-5.69-6.02-5.15-12.31-.64-17.17.17-.19.54-.56.54-.56,0,0,.1-7.13,7.21-10.08,7.19-2.99,11.31,2.12,11.31,2.12,0,0,.88-.02,1.32,0,5.6.13,10.54,2.47,12.67,7.97Z"/>
        <path class="st2" d="M917.44,386.1c-.95-.69-2.28,0-2.23,1.17l.14,3.06c.01.28.12.55.28.78,3.72,5.03,1.69,11.18-3.91,14.7-4.95,3.11-14.85,5-20.34,2.97-4.08-1.51-3.36-3.65-2.07-7.47.88-2.61,4.72-14.4,14.48-15.13,1.46-.11,1.77-2.23.38-2.68-.08-.03-.16-.05-.24-.06-.62-.11-.48-.19-1.75-.23s-2.44.01-3.5.66l-14.57,9.48c-.95.58-2.52,3.31-2.99,4.31-2.01,4.24-6.09,12.41-6.09,12.41-.35.74,0,1.63.77,1.9,2.95,1.06,6.53,1.75,10.81,1.96,7.27.36,19.42-.42,26.2-2.98,11.23-4.24,13.41-18.43,4.63-24.85Z"/>
        <path class="st2" d="M886.02,388.24c-.24.51.33,1.02.8.73l8.06-4.88c.49-.3.28-1.06-.3-1.06-.62,0-3.58-.25-5.08-.38-.53-.05-1.02.24-1.25.72-.65,1.42-1.97,4.28-2.24,4.86Z"/>
      </g>
    </g>
  </g>
  <g>
    <g>
      <g>
        <path class="st5" d="M1511.87-409.49c5.66,0,10.18,1.57,13.55,4.7,3.37,3.13,5.05,7.18,5.05,12.14s-1.68,9.01-5.05,12.14c-3.37,3.13-7.89,4.7-13.55,4.7h-11.76v-33.69h11.76ZM1511.87-380.68c4.02,0,7.22-1.11,9.6-3.32s3.57-5.1,3.57-8.65-1.19-6.44-3.57-8.65-5.58-3.32-9.6-3.32h-6.39v23.93h6.39Z"/>
        <path class="st5" d="M1561.19-375.8h-5.23v-2.87c-2.28,2.38-5.3,3.57-9.05,3.57-3.39,0-6.29-1.23-8.72-3.7-2.43-2.46-3.64-5.62-3.64-9.48s1.22-6.97,3.67-9.45c2.45-2.48,5.35-3.72,8.7-3.72,3.75,0,6.77,1.19,9.05,3.57v-2.87h5.23v24.94ZM1553.5-382.11c1.64-1.59,2.46-3.65,2.46-6.16s-.82-4.57-2.46-6.16c-1.64-1.59-3.55-2.39-5.73-2.39-2.35,0-4.29.78-5.83,2.34-1.54,1.56-2.31,3.63-2.31,6.21s.77,4.65,2.31,6.21c1.54,1.56,3.49,2.34,5.83,2.34,2.18,0,4.09-.8,5.73-2.39Z"/>
        <path class="st5" d="M1576.1-361.42h-5.83l6.36-14.99-10.76-24.38h5.83l7.79,18,7.99-18h5.83l-17.22,39.37Z"/>
      </g>
      <g>
        <path class="st9" d="M1377.48-380.05c2.45-1.56,4.21-3.66,5.28-6.31l1.76.5c-1.21,2.98-3.19,5.37-5.96,7.17-2.77,1.79-6.01,2.69-9.73,2.69-4.83,0-8.92-1.69-12.27-5.05-3.35-3.37-5.03-7.48-5.03-12.34s1.68-8.97,5.03-12.34c3.35-3.37,7.44-5.05,12.27-5.05,3.69,0,6.92.89,9.7,2.67s4.78,4.14,5.98,7.09l-1.71.6c-1.07-2.65-2.84-4.75-5.3-6.31-2.46-1.56-5.35-2.34-8.67-2.34-4.32,0-7.98,1.52-10.96,4.55s-4.47,6.75-4.47,11.14,1.49,8.1,4.47,11.14,6.64,4.55,10.96,4.55c3.32,0,6.2-.78,8.65-2.34Z"/>
        <path class="st9" d="M1394.17-381.63c0,1.17.36,2.13,1.08,2.87.72.74,1.68,1.11,2.89,1.11,1.04,0,2-.3,2.87-.9l.55,1.46c-1.11.74-2.31,1.11-3.62,1.11-1.64,0-2.97-.51-4-1.53s-1.53-2.37-1.53-4.05v-33.69h1.76v33.64Z"/>
        <path class="st9" d="M1426.88-397.97c2.43,2.41,3.65,5.45,3.65,9.1s-1.21,6.75-3.65,9.17c-2.43,2.43-5.49,3.65-9.18,3.65s-6.65-1.21-9.1-3.65c-2.45-2.43-3.67-5.49-3.67-9.17s1.22-6.69,3.67-9.1c2.45-2.41,5.48-3.62,9.1-3.62s6.75,1.21,9.18,3.62ZM1425.62-380.83c2.13-2.15,3.19-4.83,3.19-8.04s-1.06-5.88-3.19-7.97-4.77-3.14-7.92-3.14-5.78,1.05-7.89,3.14c-2.11,2.09-3.17,4.75-3.17,7.97s1.06,5.9,3.19,8.04c2.13,2.15,4.75,3.22,7.87,3.22s5.79-1.07,7.92-3.22Z"/>
        <path class="st9" d="M1459.74-376.55h-1.71v-6.03c-.87,2.04-2.22,3.65-4.05,4.8-1.83,1.16-3.96,1.73-6.41,1.73-2.98,0-5.38-.97-7.19-2.92-1.81-1.94-2.71-4.49-2.71-7.64v-14.48h1.76v14.33c0,2.71.75,4.91,2.26,6.59,1.51,1.68,3.49,2.51,5.93,2.51,3.12,0,5.63-.99,7.54-2.97,1.91-1.98,2.87-4.63,2.87-7.94v-12.52h1.71v24.54Z"/>
        <path class="st9" d="M1492.62-376.55h-1.76v-6.13c-1.04,2.11-2.53,3.75-4.47,4.93-1.94,1.17-4.11,1.76-6.49,1.76-3.49,0-6.44-1.19-8.85-3.57s-3.62-5.46-3.62-9.25,1.21-6.86,3.62-9.23c2.41-2.36,5.36-3.54,8.85-3.54,2.38,0,4.54.59,6.49,1.76,1.94,1.17,3.44,2.8,4.47,4.88v-20.31h1.76v38.71ZM1487.61-380.73c2.16-2.08,3.24-4.78,3.24-8.09s-1.08-5.97-3.24-8.04-4.7-3.12-7.62-3.12-5.62,1.03-7.72,3.09c-2.09,2.06-3.14,4.75-3.14,8.07s1.05,6.06,3.14,8.12c2.1,2.06,4.67,3.09,7.72,3.09s5.46-1.04,7.62-3.12Z"/>
      </g>
      <g>
        <path class="st7" d="M1503.91-368.03v6.58h-.39v-6.58h-2.76v-.34h5.92v.34h-2.77Z"/>
        <path class="st7" d="M1512.99-361.45l-2.93-3.29h-1.66v3.29h-.37v-6.92h3.11c.63,0,1.14.17,1.53.5.39.33.58.77.58,1.32s-.19.99-.58,1.32c-.39.33-.9.5-1.53.5h-.6l2.96,3.29h-.51ZM1511.13-365.07c.52,0,.94-.14,1.26-.41s.48-.63.48-1.07-.16-.8-.48-1.07c-.32-.27-.74-.41-1.26-.41h-2.74v2.95h2.74Z"/>
        <path class="st7" d="M1514.91-361.45v-6.92h.37v6.92h-.37Z"/>
        <path class="st7" d="M1522.79-361.45l-.9-1.95h-4.09l-.9,1.95h-.39l3.17-6.92h.33l3.17,6.92h-.39ZM1519.84-367.87l-1.89,4.13h3.79l-1.9-4.13ZM1518.44-369.11l1.24-1.42h.34l1.23,1.42h-.39l-1.01-1.15-1,1.15h-.4Z"/>
        <path class="st7" d="M1530.17-361.45h-.35l-5.04-6.29v6.29h-.37v-6.92h.34l5.04,6.29v-6.29h.38v6.92Z"/>
        <path class="st7" d="M1538.88-364.91c0,1.01-.32,1.85-.96,2.54-.64.69-1.47,1.03-2.48,1.03s-1.84-.35-2.53-1.04c-.69-.69-1.03-1.54-1.03-2.54s.34-1.84,1.03-2.54c.68-.69,1.53-1.04,2.53-1.04.75,0,1.41.17,1.97.52.57.35.97.82,1.23,1.41l-.34.13c-.23-.52-.6-.94-1.11-1.25-.5-.31-1.09-.46-1.76-.46-.9,0-1.65.31-2.26.94-.61.62-.91,1.38-.91,2.29s.31,1.67.92,2.29c.61.62,1.37.93,2.26.93s1.59-.29,2.16-.87c.57-.58.87-1.31.91-2.17h-3.5v-.34h3.86v.17Z"/>
        <path class="st7" d="M1546.13-364.41c0,.92-.26,1.67-.77,2.23-.52.56-1.2.85-2.05.85s-1.53-.28-2.04-.85c-.52-.57-.77-1.31-.77-2.23v-3.96h.37v3.96c0,.81.22,1.47.67,1.97s1.04.75,1.78.75,1.32-.25,1.77-.74c.45-.5.67-1.15.67-1.97v-3.96h.38v3.96Z"/>
        <path class="st7" d="M1552.75-361.45h-4.64v-6.92h.37v6.58h4.27v.34Z"/>
        <path class="st7" d="M1559.49-367.44c.68.69,1.02,1.54,1.02,2.54s-.34,1.84-1.02,2.54c-.68.69-1.52,1.04-2.5,1.04s-1.83-.34-2.51-1.03c-.68-.69-1.02-1.54-1.02-2.54s.34-1.84,1.02-2.54c.68-.69,1.52-1.04,2.51-1.04s1.82.35,2.5,1.04ZM1559.22-362.62c.61-.62.91-1.39.91-2.29s-.3-1.66-.91-2.29c-.61-.62-1.35-.94-2.23-.94s-1.64.31-2.24.94c-.61.62-.91,1.38-.91,2.29s.3,1.67.91,2.29c.61.62,1.35.93,2.24.93s1.62-.31,2.23-.93Z"/>
      </g>
      <g>
        <path class="st5" d="M1669.54-401.87c2.74,7.09-1.34,13.93-6.51,16.95-.12.07-.23.16-.33.28-.81.89-.56,2.3.44,2.99h0c1.5,1.03,3.46,1.21,5.1.41,5.66-2.74,15.64-14.73,8.51-27.01-6.7-11.54-15.22-14.41-25.54-14.02-.82.03-1.51.06-1.51.06,0,0-8.46-8.69-21.35-2.75-11.71,5.4-12.56,16.74-12.56,16.74,0,0-1.32,1.3-1.93,1.97-2.83,3.1-5.04,6.51-6.45,10.1-3.6,9.17-.81,19.49,9.01,28.79,1.36,1.29,3.62.86,4.42-.81l2.47-5.14c.49-1.01.27-2.19-.5-3.01-8.21-8.68-7.43-17.76-.93-24.76.25-.27.78-.81.78-.81,0,0,.14-10.28,10.4-14.53s16.31,3.06,16.31,3.06c0,0,1.27-.03,1.9-.01,8.07.19,15.2,3.56,18.27,11.5Z"/>
        <path class="st10" d="M1684.58-400.03c-1.37-1-3.29,0-3.21,1.69l.2,4.41c.02.41.17.79.41,1.12,5.36,7.25,2.44,16.12-5.63,21.19-7.13,4.49-21.42,7.21-29.33,4.29-5.88-2.17-4.85-5.26-2.98-10.78,1.27-3.76,6.81-20.77,20.88-21.82,2.11-.16,2.55-3.21.54-3.87-.11-.04-.23-.07-.35-.09-.89-.16-.7-.27-2.52-.32s-3.52.02-5.05.95l-21.01,13.67c-1.37.83-3.63,4.77-4.31,6.22-2.89,6.11-8.78,17.9-8.78,17.9-.51,1.06,0,2.34,1.11,2.74,4.26,1.53,9.42,2.52,15.59,2.83,10.49.52,28-.6,37.78-4.3,16.19-6.12,19.33-26.58,6.68-35.84Z"/>
        <path class="st6" d="M1639.27-396.93c-.34.73.47,1.47,1.16,1.05l11.63-7.03c.71-.43.4-1.53-.43-1.52-.9,0-5.17-.36-7.33-.55-.76-.07-1.48.35-1.8,1.04-.94,2.05-2.84,6.17-3.23,7.01Z"/>
      </g>
    </g>
    <rect class="st9" x="1019.51" y="-245.55" width="250.25" height="194.06"/>
    <rect class="st5" x="1269.75" y="-245.55" width="250.25" height="194.06"/>
    <rect class="st0" x="1520" y="-245.55" width="250.25" height="194.06"/>
    <rect class="st8" x="1770.25" y="-245.55" width="250.25" height="194.06"/>
    <g>
      <g>
        <path class="st5" d="M1140.81-157.7c2.85,0,5.13.79,6.82,2.37,1.7,1.58,2.54,3.62,2.54,6.11s-.85,4.53-2.54,6.11c-1.7,1.58-3.97,2.37-6.82,2.37h-5.92v-16.96h5.92ZM1140.81-143.2c2.02,0,3.64-.56,4.83-1.67s1.8-2.57,1.8-4.35-.6-3.24-1.8-4.35-2.81-1.67-4.83-1.67h-3.21v12.05h3.21Z"/>
        <path class="st5" d="M1165.64-140.75h-2.63v-1.44c-1.15,1.2-2.67,1.8-4.56,1.8-1.7,0-3.17-.62-4.39-1.86-1.22-1.24-1.84-2.83-1.84-4.77s.62-3.51,1.85-4.76c1.23-1.25,2.69-1.87,4.38-1.87,1.89,0,3.41.6,4.56,1.8v-1.44h2.63v12.55ZM1161.77-143.92c.83-.8,1.24-1.84,1.24-3.1s-.41-2.3-1.24-3.1c-.83-.8-1.79-1.2-2.89-1.2-1.18,0-2.16.39-2.94,1.18-.78.78-1.16,1.83-1.16,3.13s.39,2.34,1.16,3.13c.78.78,1.75,1.18,2.94,1.18,1.1,0,2.06-.4,2.89-1.2Z"/>
        <path class="st5" d="M1173.14-133.5h-2.94l3.2-7.54-5.42-12.28h2.94l3.92,9.06,4.02-9.06h2.94l-8.67,19.82Z"/>
      </g>
      <g>
        <path class="st2" d="M1073.15-142.88c1.23-.78,2.12-1.84,2.66-3.18l.89.25c-.61,1.5-1.61,2.7-3,3.61s-3.03,1.35-4.9,1.35c-2.43,0-4.49-.85-6.18-2.54-1.69-1.7-2.53-3.77-2.53-6.21s.84-4.52,2.53-6.21,3.75-2.54,6.18-2.54c1.86,0,3.49.45,4.89,1.34s2.4,2.08,3.01,3.57l-.86.3c-.54-1.33-1.43-2.39-2.67-3.18-1.24-.78-2.7-1.18-4.37-1.18-2.18,0-4.02.76-5.52,2.29s-2.25,3.4-2.25,5.61.75,4.08,2.25,5.61,3.34,2.29,5.52,2.29c1.67,0,3.12-.39,4.35-1.18Z"/>
        <path class="st2" d="M1081.56-143.68c0,.59.18,1.07.54,1.44.36.37.85.56,1.46.56.52,0,1-.15,1.44-.46l.28.73c-.56.37-1.17.56-1.82.56-.83,0-1.5-.26-2.01-.77-.52-.51-.77-1.19-.77-2.04v-16.96h.89v16.94Z"/>
        <path class="st2" d="M1098.02-151.91c1.22,1.21,1.83,2.74,1.83,4.58s-.61,3.4-1.83,4.62c-1.22,1.22-2.76,1.84-4.62,1.84s-3.35-.61-4.58-1.84c-1.23-1.22-1.85-2.76-1.85-4.62s.62-3.37,1.85-4.58c1.23-1.21,2.76-1.82,4.58-1.82s3.4.61,4.62,1.82ZM1097.39-143.28c1.07-1.08,1.61-2.43,1.61-4.05s-.54-2.96-1.61-4.01c-1.07-1.05-2.4-1.58-3.99-1.58s-2.91.53-3.97,1.58c-1.06,1.05-1.59,2.39-1.59,4.01s.54,2.97,1.61,4.05c1.07,1.08,2.39,1.62,3.96,1.62s2.92-.54,3.99-1.62Z"/>
        <path class="st2" d="M1114.56-141.12h-.86v-3.04c-.44,1.03-1.12,1.83-2.04,2.42-.92.58-2,.87-3.23.87-1.5,0-2.71-.49-3.62-1.47s-1.37-2.26-1.37-3.85v-7.29h.89v7.21c0,1.37.38,2.47,1.14,3.32.76.84,1.75,1.27,2.99,1.27,1.57,0,2.84-.5,3.8-1.49.96-1,1.44-2.33,1.44-4v-6.3h.86v12.35Z"/>
        <path class="st2" d="M1131.12-141.12h-.89v-3.09c-.52,1.06-1.27,1.89-2.25,2.48-.98.59-2.07.89-3.26.89-1.76,0-3.24-.6-4.46-1.8-1.21-1.2-1.82-2.75-1.82-4.66s.61-3.46,1.82-4.65c1.22-1.19,2.7-1.78,4.46-1.78,1.2,0,2.29.29,3.26.88.98.59,1.73,1.41,2.25,2.46v-10.23h.89v19.49ZM1128.6-143.23c1.09-1.05,1.63-2.41,1.63-4.08s-.54-3-1.63-4.05c-1.09-1.05-2.37-1.57-3.84-1.57s-2.83.52-3.89,1.56-1.58,2.39-1.58,4.06.53,3.05,1.58,4.09c1.05,1.04,2.35,1.56,3.89,1.56s2.75-.52,3.84-1.57Z"/>
      </g>
      <g>
        <path class="st2" d="M1136.8-136.83v3.31h-.2v-3.31h-1.39v-.17h2.98v.17h-1.39Z"/>
        <path class="st2" d="M1141.37-133.52l-1.48-1.65h-.84v1.65h-.19v-3.49h1.57c.32,0,.58.08.77.25.19.17.29.39.29.67s-.1.5-.29.67c-.19.17-.45.25-.77.25h-.3l1.49,1.65h-.25ZM1140.44-135.35c.26,0,.48-.07.63-.21s.24-.32.24-.54-.08-.4-.24-.54-.37-.21-.63-.21h-1.38v1.49h1.38Z"/>
        <path class="st2" d="M1142.34-133.52v-3.49h.19v3.49h-.19Z"/>
        <path class="st2" d="M1146.3-133.52l-.45-.98h-2.06l-.45.98h-.2l1.6-3.49h.17l1.6,3.49h-.2ZM1144.82-136.76l-.95,2.08h1.91l-.96-2.08ZM1144.11-137.38l.62-.71h.17l.62.71h-.2l-.51-.58-.5.58h-.2Z"/>
        <path class="st2" d="M1150.02-133.52h-.18l-2.54-3.17v3.17h-.19v-3.49h.17l2.54,3.17v-3.17h.19v3.49Z"/>
        <path class="st2" d="M1154.4-135.26c0,.51-.16.93-.48,1.28-.32.35-.74.52-1.25.52s-.93-.17-1.27-.52c-.35-.35-.52-.78-.52-1.28s.17-.93.52-1.28c.34-.35.77-.52,1.27-.52.38,0,.71.09.99.26s.49.41.62.71l-.17.07c-.12-.26-.3-.47-.56-.63-.25-.16-.55-.23-.88-.23-.45,0-.83.16-1.14.47-.31.31-.46.7-.46,1.15s.15.84.46,1.15c.31.31.69.47,1.14.47s.8-.15,1.09-.44c.29-.29.44-.66.46-1.1h-1.76v-.17h1.95v.08Z"/>
        <path class="st2" d="M1158.06-135.01c0,.46-.13.84-.39,1.12-.26.29-.6.43-1.03.43s-.77-.14-1.03-.43c-.26-.28-.39-.66-.39-1.12v-1.99h.19v1.99c0,.41.11.74.34.99.23.25.52.38.89.38s.67-.12.89-.37c.22-.25.34-.58.34-.99v-1.99h.19v1.99Z"/>
        <path class="st2" d="M1161.39-133.52h-2.34v-3.49h.19v3.31h2.15v.17Z"/>
        <path class="st2" d="M1164.78-136.54c.34.35.52.77.52,1.28s-.17.93-.52,1.28c-.34.35-.76.52-1.26.52s-.92-.17-1.26-.52c-.34-.35-.51-.77-.51-1.28s.17-.93.51-1.28c.34-.35.76-.52,1.26-.52s.92.17,1.26.52ZM1164.65-134.11c.3-.31.46-.7.46-1.15s-.15-.84-.46-1.15c-.31-.31-.68-.47-1.12-.47s-.82.16-1.13.47c-.31.31-.46.7-.46,1.15s.15.84.46,1.15c.3.31.68.47,1.13.47s.82-.16,1.12-.47Z"/>
      </g>
      <path class="st5" d="M1220.18-153.87c1.38,3.57-.68,7.01-3.28,8.53-.06.03-.11.08-.17.14-.41.45-.28,1.16.22,1.5h0c.75.52,1.74.61,2.57.21,2.85-1.38,7.87-7.41,4.28-13.6-3.37-5.81-7.66-7.25-12.86-7.06-.41.02-.76.03-.76.03,0,0-4.26-4.38-10.75-1.39-5.89,2.72-6.32,8.43-6.32,8.43,0,0-.66.65-.97.99-1.43,1.56-2.54,3.28-3.25,5.08-1.81,4.62-.41,9.81,4.54,14.5.68.65,1.82.43,2.23-.41l1.24-2.59c.24-.51.14-1.1-.25-1.52-4.13-4.37-3.74-8.94-.47-12.47.13-.14.39-.41.39-.41,0,0,.07-5.17,5.23-7.32,5.22-2.17,8.21,1.54,8.21,1.54,0,0,.64-.01.96,0,4.06.09,7.65,1.79,9.2,5.79Z"/>
      <path class="st10" d="M1227.75-152.94c-.69-.5-1.66,0-1.62.85l.1,2.22c0,.2.08.4.21.56,2.7,3.65,1.23,8.12-2.84,10.67-3.59,2.26-10.78,3.63-14.77,2.16-2.96-1.09-2.44-2.65-1.5-5.43.64-1.89,3.43-10.45,10.51-10.99,1.06-.08,1.28-1.62.27-1.95-.06-.02-.11-.03-.18-.04-.45-.08-.35-.13-1.27-.16s-1.77.01-2.54.48l-10.58,6.88c-.69.42-1.83,2.4-2.17,3.13-1.46,3.08-4.42,9.01-4.42,9.01-.26.53,0,1.18.56,1.38,2.14.77,4.74,1.27,7.85,1.43,5.28.26,14.1-.3,19.02-2.16,8.15-3.08,9.73-13.38,3.36-18.04Z"/>
      <path class="st6" d="M1204.94-151.38c-.17.37.24.74.58.53l5.85-3.54c.36-.22.2-.77-.22-.77-.45,0-2.6-.18-3.69-.27-.38-.03-.74.18-.9.53-.47,1.03-1.43,3.11-1.63,3.53Z"/>
    </g>
    <g>
      <g>
        <path class="st2" d="M1390.64-157.7c2.85,0,5.13.79,6.82,2.37,1.7,1.58,2.54,3.62,2.54,6.11s-.85,4.53-2.54,6.11c-1.7,1.58-3.97,2.37-6.82,2.37h-5.92v-16.96h5.92ZM1390.64-143.2c2.02,0,3.64-.56,4.83-1.67s1.8-2.57,1.8-4.35-.6-3.24-1.8-4.35-2.81-1.67-4.83-1.67h-3.21v12.05h3.21Z"/>
        <path class="st2" d="M1415.47-140.75h-2.63v-1.44c-1.15,1.2-2.67,1.8-4.56,1.8-1.7,0-3.17-.62-4.39-1.86-1.22-1.24-1.84-2.83-1.84-4.77s.62-3.51,1.85-4.76c1.23-1.25,2.69-1.87,4.38-1.87,1.89,0,3.41.6,4.56,1.8v-1.44h2.63v12.55ZM1411.59-143.92c.83-.8,1.24-1.84,1.24-3.1s-.41-2.3-1.24-3.1c-.83-.8-1.79-1.2-2.89-1.2-1.18,0-2.16.39-2.94,1.18-.78.78-1.16,1.83-1.16,3.13s.39,2.34,1.16,3.13c.78.78,1.75,1.18,2.94,1.18,1.1,0,2.06-.4,2.89-1.2Z"/>
        <path class="st2" d="M1422.97-133.5h-2.94l3.2-7.54-5.42-12.28h2.94l3.92,9.06,4.02-9.06h2.94l-8.67,19.82Z"/>
      </g>
      <g>
        <path class="st9" d="M1322.98-142.88c1.23-.78,2.12-1.84,2.66-3.18l.89.25c-.61,1.5-1.61,2.7-3,3.61s-3.03,1.35-4.9,1.35c-2.43,0-4.49-.85-6.18-2.54-1.69-1.7-2.53-3.77-2.53-6.21s.84-4.52,2.53-6.21,3.75-2.54,6.18-2.54c1.86,0,3.49.45,4.89,1.34s2.4,2.08,3.01,3.57l-.86.3c-.54-1.33-1.43-2.39-2.67-3.18-1.24-.78-2.7-1.18-4.37-1.18-2.18,0-4.02.76-5.52,2.29s-2.25,3.4-2.25,5.61.75,4.08,2.25,5.61,3.34,2.29,5.52,2.29c1.67,0,3.12-.39,4.35-1.18Z"/>
        <path class="st9" d="M1331.38-143.68c0,.59.18,1.07.54,1.44.36.37.85.56,1.46.56.52,0,1-.15,1.44-.46l.28.73c-.56.37-1.17.56-1.82.56-.83,0-1.5-.26-2.01-.77-.52-.51-.77-1.19-.77-2.04v-16.96h.89v16.94Z"/>
        <path class="st9" d="M1347.85-151.91c1.22,1.21,1.83,2.74,1.83,4.58s-.61,3.4-1.83,4.62c-1.22,1.22-2.76,1.84-4.62,1.84s-3.35-.61-4.58-1.84c-1.23-1.22-1.85-2.76-1.85-4.62s.62-3.37,1.85-4.58c1.23-1.21,2.76-1.82,4.58-1.82s3.4.61,4.62,1.82ZM1347.22-143.28c1.07-1.08,1.61-2.43,1.61-4.05s-.54-2.96-1.61-4.01c-1.07-1.05-2.4-1.58-3.99-1.58s-2.91.53-3.97,1.58c-1.06,1.05-1.59,2.39-1.59,4.01s.54,2.97,1.61,4.05c1.07,1.08,2.39,1.62,3.96,1.62s2.92-.54,3.99-1.62Z"/>
        <path class="st9" d="M1364.39-141.12h-.86v-3.04c-.44,1.03-1.12,1.83-2.04,2.42-.92.58-2,.87-3.23.87-1.5,0-2.71-.49-3.62-1.47s-1.37-2.26-1.37-3.85v-7.29h.89v7.21c0,1.37.38,2.47,1.14,3.32.76.84,1.75,1.27,2.99,1.27,1.57,0,2.83-.5,3.8-1.49.96-1,1.44-2.33,1.44-4v-6.3h.86v12.35Z"/>
        <path class="st9" d="M1380.94-141.12h-.89v-3.09c-.52,1.06-1.27,1.89-2.25,2.48-.98.59-2.07.89-3.26.89-1.76,0-3.24-.6-4.46-1.8-1.21-1.2-1.82-2.75-1.82-4.66s.61-3.46,1.82-4.65c1.22-1.19,2.7-1.78,4.46-1.78,1.2,0,2.29.29,3.26.88.98.59,1.73,1.41,2.25,2.46v-10.23h.89v19.49ZM1378.43-143.23c1.09-1.05,1.63-2.41,1.63-4.08s-.54-3-1.63-4.05c-1.09-1.05-2.37-1.57-3.84-1.57s-2.83.52-3.89,1.56-1.58,2.39-1.58,4.06.53,3.05,1.58,4.09c1.05,1.04,2.35,1.56,3.89,1.56s2.75-.52,3.84-1.57Z"/>
      </g>
      <g>
        <path class="st7" d="M1386.63-136.83v3.31h-.2v-3.31h-1.39v-.17h2.98v.17h-1.39Z"/>
        <path class="st7" d="M1391.2-133.52l-1.48-1.65h-.84v1.65h-.19v-3.49h1.57c.32,0,.58.08.77.25.19.17.29.39.29.67s-.1.5-.29.67c-.19.17-.45.25-.77.25h-.3l1.49,1.65h-.25ZM1390.26-135.35c.26,0,.48-.07.63-.21s.24-.32.24-.54-.08-.4-.24-.54-.37-.21-.63-.21h-1.38v1.49h1.38Z"/>
        <path class="st7" d="M1392.17-133.52v-3.49h.19v3.49h-.19Z"/>
        <path class="st7" d="M1396.13-133.52l-.45-.98h-2.06l-.45.98h-.2l1.6-3.49h.17l1.6,3.49h-.2ZM1394.65-136.76l-.95,2.08h1.91l-.96-2.08ZM1393.94-137.38l.62-.71h.17l.62.71h-.2l-.51-.58-.5.58h-.2Z"/>
        <path class="st7" d="M1399.85-133.52h-.18l-2.54-3.17v3.17h-.19v-3.49h.17l2.54,3.17v-3.17h.19v3.49Z"/>
        <path class="st7" d="M1404.23-135.26c0,.51-.16.93-.48,1.28-.32.35-.74.52-1.25.52s-.93-.17-1.27-.52c-.35-.35-.52-.78-.52-1.28s.17-.93.52-1.28c.34-.35.77-.52,1.27-.52.38,0,.71.09.99.26s.49.41.62.71l-.17.07c-.12-.26-.3-.47-.56-.63-.25-.16-.55-.23-.88-.23-.45,0-.83.16-1.14.47-.31.31-.46.7-.46,1.15s.15.84.46,1.15c.31.31.69.47,1.14.47s.8-.15,1.09-.44c.29-.29.44-.66.46-1.1h-1.76v-.17h1.95v.08Z"/>
        <path class="st7" d="M1407.89-135.01c0,.46-.13.84-.39,1.12-.26.29-.6.43-1.03.43s-.77-.14-1.03-.43c-.26-.28-.39-.66-.39-1.12v-1.99h.19v1.99c0,.41.11.74.34.99.23.25.52.38.89.38s.67-.12.89-.37c.22-.25.34-.58.34-.99v-1.99h.19v1.99Z"/>
        <path class="st7" d="M1411.22-133.52h-2.34v-3.49h.19v3.31h2.15v.17Z"/>
        <path class="st7" d="M1414.61-136.54c.34.35.52.77.52,1.28s-.17.93-.52,1.28c-.34.35-.76.52-1.26.52s-.92-.17-1.26-.52c-.34-.35-.51-.77-.51-1.28s.17-.93.51-1.28c.34-.35.76-.52,1.26-.52s.92.17,1.26.52ZM1414.48-134.11c.3-.31.46-.7.46-1.15s-.15-.84-.46-1.15c-.31-.31-.68-.47-1.12-.47s-.82.16-1.13.47c-.31.31-.46.7-.46,1.15s.15.84.46,1.15c.3.31.68.47,1.13.47s.82-.16,1.12-.47Z"/>
      </g>
      <path class="st2" d="M1470.01-153.87c1.38,3.57-.68,7.01-3.28,8.53-.06.03-.11.08-.17.14-.41.45-.28,1.16.22,1.5h0c.75.52,1.74.61,2.57.21,2.85-1.38,7.87-7.41,4.28-13.6-3.37-5.81-7.66-7.25-12.86-7.06-.41.02-.76.03-.76.03,0,0-4.26-4.38-10.75-1.39-5.89,2.72-6.32,8.43-6.32,8.43,0,0-.66.65-.97.99-1.43,1.56-2.54,3.28-3.25,5.08-1.81,4.62-.41,9.81,4.54,14.5.68.65,1.82.43,2.23-.41l1.24-2.59c.24-.51.14-1.1-.25-1.52-4.13-4.37-3.74-8.94-.47-12.47.13-.14.39-.41.39-.41,0,0,.07-5.17,5.23-7.32,5.22-2.17,8.21,1.54,8.21,1.54,0,0,.64-.01.96,0,4.06.09,7.65,1.79,9.2,5.79Z"/>
      <path class="st10" d="M1477.58-152.94c-.69-.5-1.66,0-1.62.85l.1,2.22c0,.2.08.4.21.56,2.7,3.65,1.23,8.12-2.84,10.67-3.59,2.26-10.78,3.63-14.77,2.16-2.96-1.09-2.44-2.65-1.5-5.43.64-1.89,3.43-10.45,10.51-10.99,1.06-.08,1.28-1.62.27-1.95-.06-.02-.11-.03-.18-.04-.45-.08-.35-.13-1.27-.16s-1.77.01-2.54.48l-10.58,6.88c-.69.42-1.83,2.4-2.17,3.13-1.46,3.08-4.42,9.01-4.42,9.01-.26.53,0,1.18.56,1.38,2.14.77,4.74,1.27,7.85,1.43,5.28.26,14.1-.3,19.02-2.16,8.15-3.08,9.73-13.38,3.36-18.04Z"/>
      <path class="st6" d="M1454.77-151.38c-.17.37.24.74.58.53l5.85-3.54c.36-.22.2-.77-.22-.77-.45,0-2.6-.18-3.69-.27-.38-.03-.74.18-.9.53-.47,1.03-1.43,3.11-1.63,3.53Z"/>
    </g>
    <g>
      <path class="st1" d="M1642.23-157.7c2.85,0,5.13.79,6.82,2.37,1.7,1.58,2.54,3.62,2.54,6.11s-.85,4.53-2.54,6.11c-1.7,1.58-3.97,2.37-6.82,2.37h-5.92v-16.96h5.92ZM1642.23-143.2c2.02,0,3.64-.56,4.83-1.67s1.8-2.57,1.8-4.35-.6-3.24-1.8-4.35-2.81-1.67-4.83-1.67h-3.21v12.05h3.21Z"/>
      <path class="st1" d="M1667.06-140.75h-2.63v-1.44c-1.15,1.2-2.67,1.8-4.56,1.8-1.7,0-3.17-.62-4.39-1.86-1.22-1.24-1.84-2.83-1.84-4.77s.62-3.51,1.85-4.76c1.23-1.25,2.69-1.87,4.38-1.87,1.89,0,3.41.6,4.56,1.8v-1.44h2.63v12.55ZM1663.19-143.92c.83-.8,1.24-1.84,1.24-3.1s-.41-2.3-1.24-3.1c-.83-.8-1.79-1.2-2.89-1.2-1.18,0-2.16.39-2.94,1.18-.78.78-1.16,1.83-1.16,3.13s.39,2.34,1.16,3.13c.78.78,1.75,1.18,2.94,1.18,1.1,0,2.06-.4,2.89-1.2Z"/>
      <path class="st1" d="M1674.57-133.5h-2.94l3.2-7.54-5.42-12.28h2.94l3.92,9.06,4.02-9.06h2.94l-8.67,19.82Z"/>
      <g>
        <path class="st3" d="M1574.58-142.88c1.23-.78,2.12-1.84,2.66-3.18l.89.25c-.61,1.5-1.61,2.7-3,3.61-1.39.9-3.02,1.35-4.9,1.35-2.43,0-4.49-.85-6.18-2.54-1.69-1.7-2.53-3.77-2.53-6.21s.84-4.52,2.53-6.21c1.69-1.7,3.75-2.54,6.18-2.54,1.86,0,3.48.45,4.89,1.34,1.4.89,2.4,2.08,3.01,3.57l-.86.3c-.54-1.33-1.43-2.39-2.67-3.18-1.24-.78-2.7-1.18-4.37-1.18-2.18,0-4.02.76-5.52,2.29s-2.25,3.4-2.25,5.61.75,4.08,2.25,5.61,3.34,2.29,5.52,2.29c1.67,0,3.12-.39,4.35-1.18Z"/>
        <path class="st3" d="M1582.98-143.68c0,.59.18,1.07.54,1.44s.85.56,1.46.56c.52,0,1-.15,1.44-.46l.28.73c-.56.37-1.16.56-1.82.56-.83,0-1.5-.26-2.01-.77s-.77-1.19-.77-2.04v-16.96h.89v16.94Z"/>
        <path class="st3" d="M1599.45-151.91c1.22,1.22,1.84,2.74,1.84,4.58s-.61,3.4-1.84,4.62-2.76,1.84-4.62,1.84-3.35-.61-4.58-1.84c-1.23-1.22-1.85-2.76-1.85-4.62s.62-3.37,1.85-4.58c1.23-1.22,2.76-1.82,4.58-1.82s3.4.61,4.62,1.82ZM1598.81-143.28c1.07-1.08,1.61-2.43,1.61-4.05s-.54-2.96-1.61-4.01-2.4-1.58-3.99-1.58-2.91.53-3.97,1.58c-1.06,1.05-1.59,2.39-1.59,4.01s.54,2.97,1.61,4.05c1.07,1.08,2.39,1.62,3.96,1.62s2.92-.54,3.99-1.62Z"/>
        <path class="st3" d="M1615.99-141.12h-.86v-3.04c-.44,1.03-1.12,1.84-2.04,2.42-.92.58-2,.87-3.23.87-1.5,0-2.71-.49-3.62-1.47s-1.37-2.26-1.37-3.85v-7.29h.89v7.21c0,1.37.38,2.47,1.14,3.32s1.76,1.27,2.99,1.27c1.57,0,2.84-.5,3.8-1.49.96-1,1.44-2.33,1.44-4v-6.3h.86v12.35Z"/>
        <path class="st3" d="M1632.54-141.12h-.89v-3.09c-.52,1.06-1.27,1.89-2.25,2.48-.98.59-2.07.89-3.27.89-1.76,0-3.24-.6-4.46-1.8s-1.82-2.75-1.82-4.66.61-3.46,1.82-4.65c1.22-1.19,2.7-1.78,4.46-1.78,1.2,0,2.29.3,3.27.89.98.59,1.73,1.41,2.25,2.46v-10.23h.89v19.49ZM1630.02-143.23c1.09-1.05,1.63-2.4,1.63-4.08s-.54-3-1.63-4.05c-1.09-1.05-2.37-1.57-3.84-1.57s-2.83.52-3.89,1.56c-1.05,1.04-1.58,2.39-1.58,4.06s.53,3.05,1.58,4.09c1.05,1.04,2.35,1.56,3.89,1.56s2.75-.52,3.84-1.57Z"/>
      </g>
      <g>
        <path class="st3" d="M1638.23-136.83v3.31h-.2v-3.31h-1.39v-.17h2.98v.17h-1.39Z"/>
        <path class="st3" d="M1642.8-133.52l-1.48-1.65h-.84v1.65h-.19v-3.48h1.57c.32,0,.58.08.77.25s.29.39.29.67-.1.5-.29.67-.45.25-.77.25h-.3l1.49,1.65h-.25ZM1641.86-135.34c.26,0,.47-.07.63-.21.16-.14.24-.32.24-.54s-.08-.4-.24-.54c-.16-.14-.37-.21-.63-.21h-1.38v1.49h1.38Z"/>
        <path class="st3" d="M1643.76-133.52v-3.48h.19v3.48h-.19Z"/>
        <path class="st3" d="M1647.73-133.52l-.45-.98h-2.06l-.45.98h-.2l1.6-3.48h.17l1.6,3.48h-.2ZM1646.25-136.75l-.95,2.08h1.91l-.96-2.08ZM1645.54-137.38l.62-.71h.17l.62.71h-.2l-.51-.58-.5.58h-.2Z"/>
        <path class="st3" d="M1651.44-133.52h-.18l-2.54-3.17v3.17h-.19v-3.48h.17l2.54,3.17v-3.17h.19v3.48Z"/>
        <path class="st3" d="M1655.83-135.26c0,.51-.16.93-.48,1.28-.32.35-.74.52-1.25.52s-.93-.17-1.27-.52c-.34-.35-.52-.77-.52-1.28s.17-.93.52-1.28c.34-.35.77-.52,1.27-.52.38,0,.71.09.99.26s.49.41.62.71l-.17.07c-.12-.26-.3-.47-.56-.63-.25-.16-.55-.23-.88-.23-.45,0-.83.16-1.14.47-.31.31-.46.7-.46,1.15s.15.84.46,1.15.69.47,1.14.47.8-.15,1.09-.44.44-.66.46-1.09h-1.76v-.17h1.94v.08Z"/>
        <path class="st3" d="M1659.48-135.01c0,.46-.13.84-.39,1.12s-.6.43-1.03.43-.77-.14-1.03-.43c-.26-.28-.39-.66-.39-1.12v-1.99h.19v1.99c0,.41.11.74.34.99s.52.38.89.38.66-.12.89-.37.34-.58.34-.99v-1.99h.19v1.99Z"/>
        <path class="st3" d="M1662.81-133.52h-2.33v-3.48h.19v3.31h2.15v.17Z"/>
        <path class="st3" d="M1666.21-136.54c.34.35.51.77.51,1.28s-.17.93-.51,1.28-.76.52-1.26.52-.92-.17-1.26-.52c-.34-.35-.51-.77-.51-1.28s.17-.93.51-1.28.76-.52,1.26-.52.91.17,1.26.52ZM1666.07-134.11c.31-.31.46-.7.46-1.15s-.15-.84-.46-1.15c-.31-.31-.68-.47-1.12-.47s-.82.16-1.13.47c-.31.31-.46.7-.46,1.15s.15.84.46,1.15.68.47,1.13.47.82-.16,1.12-.47Z"/>
      </g>
      <path class="st1" d="M1721.61-153.87c1.38,3.57-.68,7.01-3.28,8.53-.06.03-.11.08-.17.14-.41.45-.28,1.16.22,1.5h0c.75.52,1.74.61,2.57.21,2.85-1.38,7.87-7.41,4.28-13.6-3.37-5.81-7.66-7.25-12.86-7.06-.41.02-.76.03-.76.03,0,0-4.26-4.38-10.75-1.39-5.89,2.72-6.32,8.43-6.32,8.43,0,0-.66.65-.97.99-1.43,1.56-2.54,3.28-3.25,5.08-1.81,4.62-.41,9.81,4.54,14.5.68.65,1.82.43,2.23-.41l1.24-2.59c.24-.51.14-1.1-.25-1.52-4.13-4.37-3.74-8.94-.47-12.47.13-.14.39-.41.39-.41,0,0,.07-5.17,5.23-7.32,5.22-2.17,8.21,1.54,8.21,1.54,0,0,.64-.01.96,0,4.06.09,7.65,1.79,9.2,5.79Z"/>
      <path class="st4" d="M1729.18-152.94c-.69-.5-1.66,0-1.62.85l.1,2.22c0,.2.08.4.21.56,2.7,3.65,1.23,8.12-2.84,10.67-3.59,2.26-10.78,3.63-14.77,2.16-2.96-1.09-2.44-2.65-1.5-5.43.64-1.89,3.43-10.45,10.51-10.99,1.06-.08,1.28-1.62.27-1.95-.06-.02-.11-.03-.18-.04-.45-.08-.35-.13-1.27-.16s-1.77.01-2.54.48l-10.58,6.88c-.69.42-1.83,2.4-2.17,3.13-1.46,3.08-4.42,9.01-4.42,9.01-.26.53,0,1.18.56,1.38,2.14.77,4.74,1.27,7.85,1.43,5.28.26,14.1-.3,19.02-2.16,8.15-3.08,9.73-13.38,3.36-18.04Z"/>
      <path class="st3" d="M1706.37-151.38c-.17.37.24.74.58.53l5.85-3.54c.36-.22.2-.77-.22-.77-.45,0-2.6-.18-3.69-.27-.38-.03-.74.18-.9.53-.47,1.03-1.43,3.11-1.63,3.53Z"/>
    </g>
    <g>
      <g>
        <path class="st2" d="M1891.13-157.7c2.85,0,5.13.79,6.82,2.37,1.7,1.58,2.54,3.62,2.54,6.11s-.85,4.53-2.54,6.11c-1.7,1.58-3.97,2.37-6.82,2.37h-5.92v-16.96h5.92ZM1891.13-143.2c2.02,0,3.64-.56,4.83-1.67s1.8-2.57,1.8-4.35-.6-3.24-1.8-4.35-2.81-1.67-4.83-1.67h-3.21v12.05h3.21Z"/>
        <path class="st2" d="M1915.96-140.75h-2.63v-1.44c-1.15,1.2-2.67,1.8-4.56,1.8-1.7,0-3.17-.62-4.39-1.86-1.22-1.24-1.84-2.83-1.84-4.77s.62-3.51,1.85-4.76c1.23-1.25,2.69-1.87,4.38-1.87,1.89,0,3.41.6,4.56,1.8v-1.44h2.63v12.55ZM1912.09-143.92c.83-.8,1.24-1.84,1.24-3.1s-.41-2.3-1.24-3.1c-.83-.8-1.79-1.2-2.89-1.2-1.18,0-2.16.39-2.94,1.18-.78.78-1.16,1.83-1.16,3.13s.39,2.34,1.16,3.13c.78.78,1.75,1.18,2.94,1.18,1.1,0,2.06-.4,2.89-1.2Z"/>
        <path class="st2" d="M1923.46-133.5h-2.94l3.2-7.54-5.42-12.28h2.94l3.92,9.06,4.02-9.06h2.94l-8.67,19.82Z"/>
      </g>
      <g>
        <path class="st2" d="M1823.48-142.88c1.23-.78,2.12-1.84,2.66-3.18l.89.25c-.61,1.5-1.61,2.7-3,3.61s-3.03,1.35-4.9,1.35c-2.43,0-4.49-.85-6.18-2.54-1.69-1.7-2.53-3.77-2.53-6.21s.84-4.52,2.53-6.21,3.75-2.54,6.18-2.54c1.86,0,3.49.45,4.89,1.34s2.4,2.08,3.01,3.57l-.86.3c-.54-1.33-1.43-2.39-2.67-3.18-1.24-.78-2.7-1.18-4.37-1.18-2.18,0-4.02.76-5.52,2.29s-2.25,3.4-2.25,5.61.75,4.08,2.25,5.61,3.34,2.29,5.52,2.29c1.67,0,3.12-.39,4.35-1.18Z"/>
        <path class="st2" d="M1831.88-143.68c0,.59.18,1.07.54,1.44.36.37.85.56,1.46.56.52,0,1-.15,1.44-.46l.28.73c-.56.37-1.17.56-1.82.56-.83,0-1.5-.26-2.01-.77-.52-.51-.77-1.19-.77-2.04v-16.96h.89v16.94Z"/>
        <path class="st2" d="M1848.34-151.91c1.22,1.21,1.83,2.74,1.83,4.58s-.61,3.4-1.83,4.62c-1.22,1.22-2.76,1.84-4.62,1.84s-3.35-.61-4.58-1.84c-1.23-1.22-1.85-2.76-1.85-4.62s.62-3.37,1.85-4.58c1.23-1.21,2.76-1.82,4.58-1.82s3.4.61,4.62,1.82ZM1847.71-143.28c1.07-1.08,1.61-2.43,1.61-4.05s-.54-2.96-1.61-4.01c-1.07-1.05-2.4-1.58-3.99-1.58s-2.91.53-3.97,1.58c-1.06,1.05-1.59,2.39-1.59,4.01s.54,2.97,1.61,4.05c1.07,1.08,2.39,1.62,3.96,1.62s2.92-.54,3.99-1.62Z"/>
        <path class="st2" d="M1864.88-141.12h-.86v-3.04c-.44,1.03-1.12,1.83-2.04,2.42-.92.58-2,.87-3.23.87-1.5,0-2.71-.49-3.62-1.47s-1.37-2.26-1.37-3.85v-7.29h.89v7.21c0,1.37.38,2.47,1.14,3.32.76.84,1.75,1.27,2.99,1.27,1.57,0,2.83-.5,3.8-1.49.96-1,1.44-2.33,1.44-4v-6.3h.86v12.35Z"/>
        <path class="st2" d="M1881.44-141.12h-.89v-3.09c-.52,1.06-1.27,1.89-2.25,2.48-.98.59-2.07.89-3.26.89-1.76,0-3.24-.6-4.46-1.8-1.21-1.2-1.82-2.75-1.82-4.66s.61-3.46,1.82-4.65c1.22-1.19,2.7-1.78,4.46-1.78,1.2,0,2.29.29,3.26.88.98.59,1.73,1.41,2.25,2.46v-10.23h.89v19.49ZM1878.92-143.23c1.09-1.05,1.63-2.41,1.63-4.08s-.54-3-1.63-4.05c-1.09-1.05-2.37-1.57-3.84-1.57s-2.83.52-3.89,1.56-1.58,2.39-1.58,4.06.53,3.05,1.58,4.09c1.05,1.04,2.35,1.56,3.89,1.56s2.75-.52,3.84-1.57Z"/>
      </g>
      <g>
        <path class="st2" d="M1887.12-136.83v3.31h-.2v-3.31h-1.39v-.17h2.98v.17h-1.39Z"/>
        <path class="st2" d="M1891.69-133.52l-1.48-1.65h-.84v1.65h-.19v-3.49h1.57c.32,0,.58.08.77.25.19.17.29.39.29.67s-.1.5-.29.67c-.19.17-.45.25-.77.25h-.3l1.49,1.65h-.25ZM1890.76-135.35c.26,0,.48-.07.63-.21s.24-.32.24-.54-.08-.4-.24-.54-.37-.21-.63-.21h-1.38v1.49h1.38Z"/>
        <path class="st2" d="M1892.66-133.52v-3.49h.19v3.49h-.19Z"/>
        <path class="st2" d="M1896.62-133.52l-.45-.98h-2.06l-.45.98h-.2l1.6-3.49h.17l1.6,3.49h-.2ZM1895.14-136.76l-.95,2.08h1.91l-.96-2.08ZM1894.43-137.38l.62-.71h.17l.62.71h-.2l-.51-.58-.5.58h-.2Z"/>
        <path class="st2" d="M1900.34-133.52h-.18l-2.54-3.17v3.17h-.19v-3.49h.17l2.54,3.17v-3.17h.19v3.49Z"/>
        <path class="st2" d="M1904.72-135.26c0,.51-.16.93-.48,1.28-.32.35-.74.52-1.25.52s-.93-.17-1.27-.52c-.35-.35-.52-.78-.52-1.28s.17-.93.52-1.28c.34-.35.77-.52,1.27-.52.38,0,.71.09.99.26s.49.41.62.71l-.17.07c-.12-.26-.3-.47-.56-.63-.25-.16-.55-.23-.88-.23-.45,0-.83.16-1.14.47-.31.31-.46.7-.46,1.15s.15.84.46,1.15c.31.31.69.47,1.14.47s.8-.15,1.09-.44c.29-.29.44-.66.46-1.1h-1.76v-.17h1.95v.08Z"/>
        <path class="st2" d="M1908.38-135.01c0,.46-.13.84-.39,1.12-.26.29-.6.43-1.03.43s-.77-.14-1.03-.43c-.26-.28-.39-.66-.39-1.12v-1.99h.19v1.99c0,.41.11.74.34.99.23.25.52.38.89.38s.67-.12.89-.37c.22-.25.34-.58.34-.99v-1.99h.19v1.99Z"/>
        <path class="st2" d="M1911.71-133.52h-2.34v-3.49h.19v3.31h2.15v.17Z"/>
        <path class="st2" d="M1915.1-136.54c.34.35.52.77.52,1.28s-.17.93-.52,1.28c-.34.35-.76.52-1.26.52s-.92-.17-1.26-.52c-.34-.35-.51-.77-.51-1.28s.17-.93.51-1.28c.34-.35.76-.52,1.26-.52s.92.17,1.26.52ZM1914.97-134.11c.3-.31.46-.7.46-1.15s-.15-.84-.46-1.15c-.31-.31-.68-.47-1.12-.47s-.82.16-1.13.47c-.31.31-.46.7-.46,1.15s.15.84.46,1.15c.3.31.68.47,1.13.47s.82-.16,1.12-.47Z"/>
      </g>
      <g>
        <path class="st2" d="M1970.5-153.87c1.38,3.57-.68,7.01-3.28,8.53-.06.03-.11.08-.17.14-.41.45-.28,1.16.22,1.5h0c.75.52,1.74.61,2.57.21,2.85-1.38,7.87-7.41,4.28-13.6-3.37-5.81-7.66-7.25-12.86-7.06-.41.02-.76.03-.76.03,0,0-4.26-4.38-10.75-1.39-5.89,2.72-6.32,8.43-6.32,8.43,0,0-.66.65-.97.99-1.43,1.56-2.54,3.28-3.25,5.08-1.81,4.62-.41,9.81,4.54,14.5.68.65,1.82.43,2.23-.41l1.24-2.59c.24-.51.14-1.1-.25-1.52-4.13-4.37-3.74-8.94-.47-12.47.13-.14.39-.41.39-.41,0,0,.07-5.17,5.23-7.32,5.22-2.17,8.21,1.54,8.21,1.54,0,0,.64-.01.96,0,4.06.09,7.65,1.79,9.2,5.79Z"/>
        <path class="st2" d="M1978.08-152.94c-.69-.5-1.66,0-1.62.85l.1,2.22c0,.2.08.4.21.56,2.7,3.65,1.23,8.12-2.84,10.67-3.59,2.26-10.78,3.63-14.77,2.16-2.96-1.09-2.44-2.65-1.5-5.43.64-1.89,3.43-10.45,10.51-10.99,1.06-.08,1.28-1.62.27-1.95-.06-.02-.11-.03-.18-.04-.45-.08-.35-.13-1.27-.16s-1.77.01-2.54.48l-10.58,6.88c-.69.42-1.83,2.4-2.17,3.13-1.46,3.08-4.42,9.01-4.42,9.01-.26.53,0,1.18.56,1.38,2.14.77,4.74,1.27,7.85,1.43,5.28.26,14.1-.3,19.02-2.16,8.15-3.08,9.73-13.38,3.36-18.04Z"/>
        <path class="st2" d="M1955.26-151.38c-.17.37.24.74.58.53l5.85-3.54c.36-.22.2-.77-.22-.77-.45,0-2.6-.18-3.69-.27-.38-.03-.74.18-.9.53-.47,1.03-1.43,3.11-1.63,3.53Z"/>
      </g>
    </g>
  </g>
  <g>
    <path class="st5" d="M1169.36,398c2.82,7.29-1.38,14.33-6.7,17.44-.12.07-.23.17-.34.29-.83.92-.58,2.37.45,3.07h0c1.54,1.06,3.56,1.24,5.25.43,5.82-2.81,16.09-15.15,8.76-27.79-6.89-11.88-15.66-14.82-26.28-14.42-.84.03-1.55.07-1.55.07,0,0-8.71-8.95-21.97-2.83-12.05,5.55-12.92,17.22-12.92,17.22,0,0-1.35,1.34-1.99,2.03-2.91,3.19-5.19,6.7-6.64,10.39-3.71,9.44-.83,20.06,9.27,29.63,1.4,1.32,3.72.89,4.55-.83l2.54-5.29c.5-1.04.28-2.26-.52-3.1-8.45-8.93-7.64-18.27-.96-25.48.26-.28.8-.83.8-.83,0,0,.15-10.57,10.7-14.96s16.78,3.15,16.78,3.15c0,0,1.31-.03,1.96-.01,8.31.19,15.64,3.66,18.8,11.83Z"/>
    <path class="st10" d="M1184.84,399.9c-1.41-1.03-3.38,0-3.31,1.74l.2,4.54c.02.42.17.82.42,1.15,5.51,7.46,2.51,16.59-5.8,21.81-7.34,4.61-22.04,7.42-30.18,4.41-6.05-2.23-4.99-5.42-3.07-11.09,1.31-3.87,7-21.37,21.48-22.46,2.17-.16,2.63-3.3.56-3.98-.11-.04-.23-.07-.36-.09-.92-.17-.72-.27-2.6-.33s-3.62.02-5.2.98l-21.62,14.07c-1.41.85-3.73,4.91-4.44,6.4-2.98,6.29-9.03,18.42-9.03,18.42-.52,1.09,0,2.41,1.14,2.82,4.38,1.57,9.69,2.6,16.04,2.91,10.79.54,28.81-.62,38.87-4.42,16.66-6.3,19.89-27.35,6.88-36.88Z"/>
    <path class="st6" d="M1138.22,403.09c-.35.75.48,1.51,1.19,1.08l11.96-7.24c.73-.44.41-1.57-.44-1.57-.92,0-5.31-.37-7.54-.56-.78-.07-1.52.36-1.85,1.07-.97,2.11-2.92,6.35-3.32,7.21Z"/>
  </g>
  <g>
    <path class="st2" d="M1425.65,398c2.82,7.29-1.38,14.33-6.7,17.44-.12.07-.23.17-.34.29-.83.92-.58,2.37.45,3.07h0c1.54,1.06,3.56,1.24,5.25.43,5.82-2.81,16.09-15.15,8.76-27.79-6.89-11.88-15.66-14.82-26.28-14.42-.84.03-1.55.07-1.55.07,0,0-8.71-8.95-21.97-2.83-12.05,5.55-12.92,17.22-12.92,17.22,0,0-1.35,1.34-1.99,2.03-2.91,3.19-5.19,6.7-6.64,10.39-3.71,9.44-.83,20.06,9.27,29.63,1.4,1.32,3.72.89,4.55-.83l2.54-5.29c.5-1.04.28-2.26-.52-3.1-8.45-8.93-7.64-18.27-.96-25.48.26-.28.8-.83.8-.83,0,0,.15-10.57,10.7-14.96s16.78,3.15,16.78,3.15c0,0,1.31-.03,1.96-.01,8.31.19,15.64,3.66,18.8,11.83Z"/>
    <path class="st10" d="M1441.13,399.9c-1.41-1.03-3.38,0-3.31,1.74l.2,4.54c.02.42.17.82.42,1.15,5.51,7.46,2.51,16.59-5.8,21.81-7.34,4.61-22.04,7.42-30.18,4.41-6.05-2.23-4.99-5.42-3.07-11.09,1.31-3.87,7-21.37,21.48-22.46,2.17-.16,2.63-3.3.56-3.98-.11-.04-.23-.07-.36-.09-.92-.17-.72-.27-2.6-.33s-3.62.02-5.2.98l-21.62,14.07c-1.41.85-3.73,4.91-4.44,6.4-2.98,6.29-9.03,18.42-9.03,18.42-.52,1.09,0,2.41,1.14,2.82,4.38,1.57,9.69,2.6,16.04,2.91,10.79.54,28.81-.62,38.87-4.42,16.66-6.3,19.89-27.35,6.88-36.88Z"/>
    <path class="st6" d="M1394.51,403.09c-.35.75.48,1.51,1.19,1.08l11.96-7.24c.73-.44.41-1.57-.44-1.57-.92,0-5.31-.37-7.54-.56-.78-.07-1.52.36-1.85,1.07-.97,2.11-2.92,6.35-3.32,7.21Z"/>
  </g>
  <g>
    <path class="st1" d="M1662.34,398c2.82,7.29-1.38,14.33-6.7,17.44-.12.07-.23.17-.34.29-.83.92-.58,2.37.45,3.07h0c1.54,1.06,3.56,1.24,5.25.43,5.82-2.81,16.09-15.15,8.76-27.79-6.89-11.88-15.66-14.82-26.28-14.42-.84.03-1.55.07-1.55.07,0,0-8.71-8.95-21.97-2.83-12.05,5.55-12.92,17.22-12.92,17.22,0,0-1.35,1.34-1.99,2.03-2.91,3.19-5.19,6.7-6.64,10.39-3.71,9.44-.83,20.06,9.27,29.63,1.4,1.32,3.72.89,4.55-.83l2.54-5.29c.5-1.04.28-2.26-.52-3.1-8.45-8.93-7.64-18.27-.96-25.48.26-.28.8-.83.8-.83,0,0,.15-10.57,10.7-14.96s16.78,3.15,16.78,3.15c0,0,1.31-.03,1.96-.01,8.31.19,15.64,3.66,18.8,11.83Z"/>
    <path class="st4" d="M1677.82,399.9c-1.41-1.03-3.38,0-3.31,1.74l.2,4.54c.02.42.17.82.42,1.15,5.51,7.46,2.51,16.59-5.8,21.81-7.34,4.61-22.04,7.42-30.18,4.41-6.05-2.23-4.99-5.42-3.07-11.09,1.31-3.87,7-21.37,21.48-22.46,2.17-.16,2.63-3.3.56-3.98-.11-.04-.23-.07-.36-.09-.92-.17-.72-.27-2.6-.33s-3.62.02-5.2.98l-21.62,14.07c-1.41.85-3.73,4.91-4.44,6.4-2.98,6.29-9.03,18.42-9.03,18.42-.52,1.09,0,2.41,1.14,2.82,4.38,1.57,9.69,2.6,16.04,2.91,10.79.54,28.81-.62,38.87-4.42,16.66-6.3,19.89-27.35,6.88-36.88Z"/>
    <path class="st3" d="M1631.19,403.09c-.35.75.48,1.51,1.19,1.08l11.96-7.24c.73-.44.41-1.57-.44-1.57-.92,0-5.31-.37-7.54-.56-.78-.07-1.52.36-1.85,1.07-.97,2.11-2.92,6.35-3.32,7.21Z"/>
  </g>
  <g>
    <path class="st2" d="M1912.58,398c2.82,7.29-1.38,14.33-6.7,17.44-.12.07-.23.17-.34.29-.83.92-.58,2.37.45,3.07h0c1.54,1.06,3.56,1.24,5.25.43,5.82-2.81,16.09-15.15,8.76-27.79-6.89-11.88-15.66-14.82-26.28-14.42-.84.03-1.55.07-1.55.07,0,0-8.71-8.95-21.97-2.83-12.05,5.55-12.92,17.22-12.92,17.22,0,0-1.35,1.34-1.99,2.03-2.91,3.19-5.19,6.7-6.64,10.39-3.71,9.44-.83,20.06,9.27,29.63,1.4,1.32,3.72.89,4.55-.83l2.54-5.29c.5-1.04.28-2.26-.52-3.1-8.45-8.93-7.64-18.27-.96-25.48.26-.28.8-.83.8-.83,0,0,.15-10.57,10.7-14.96,10.67-4.43,16.78,3.15,16.78,3.15,0,0,1.31-.03,1.96-.01,8.31.19,15.64,3.66,18.8,11.83Z"/>
    <path class="st2" d="M1928.06,399.9c-1.41-1.03-3.38,0-3.31,1.74l.2,4.54c.02.42.17.82.42,1.15,5.51,7.46,2.51,16.59-5.8,21.81-7.34,4.61-22.04,7.42-30.18,4.41-6.05-2.23-4.99-5.42-3.07-11.09,1.31-3.87,7-21.37,21.48-22.46,2.17-.16,2.63-3.3.56-3.98-.11-.04-.23-.07-.36-.09-.92-.17-.72-.27-2.6-.33s-3.62.02-5.2.98l-21.62,14.07c-1.41.85-3.73,4.91-4.44,6.4-2.98,6.29-9.03,18.42-9.03,18.42-.52,1.09,0,2.41,1.14,2.82,4.38,1.57,9.69,2.6,16.04,2.91,10.79.54,28.81-.62,38.87-4.42,16.66-6.3,19.89-27.35,6.88-36.88Z"/>
    <path class="st2" d="M1881.44,403.09c-.35.75.48,1.51,1.19,1.08l11.96-7.24c.73-.44.41-1.57-.44-1.57-.92,0-5.31-.37-7.54-.56-.78-.07-1.52.36-1.85,1.07-.97,2.11-2.92,6.35-3.32,7.21Z"/>
  </g>
</svg>